<svg id="f4637d33-b0cb-405f-ae63-018e353bdd3e" data-name="Layer 1" xmlns="http://www.w3.org/2000/svg" xmlns:xlink="http://www.w3.org/1999/xlink" viewBox="0 0 1143.26 752.87"><defs><linearGradient id="bfd928d8-dc8b-4181-9f3a-bdd0e97e53e3" x1="619.48" y1="760.23" x2="1762.75" y2="760.23" gradientUnits="userSpaceOnUse"><stop offset="0" stop-color="#3ca5dd"/><stop offset="0.3" stop-color="#2298d5"/><stop offset="0.65" stop-color="#0013d4"/><stop offset="1" stop-color="#282b5c"/></linearGradient></defs><title>DREAVE</title><path d="M1652.61,494c-123-123-314.14-145.1-461.41-55.79a374.68,374.68,0,0,0-195.32-54.33C895.19,383.85,800.62,423,729.61,494c-146.83,146.81-146.83,385.68,0,532.49a376.87,376.87,0,0,0,461.47,55.73,376.55,376.55,0,0,0,195.25,54.37c96.44,0,192.87-36.7,266.28-110.1,71-71,110.14-165.57,110.14-266.25S1723.63,565,1652.61,494ZM770.18,985.88c-124.45-124.43-124.45-326.9,0-451.33,60.18-60.18,140.34-93.32,225.7-93.32s165.53,33.13,225.71,93.31l315.72,315.68a177.26,177.26,0,0,1-60.84,60.88L1160.72,595.4A233.1,233.1,0,0,0,831,925c44.47,44.46,104.54,68.05,165.35,68a232.69,232.69,0,0,0,77.09-13.17l46.56,46.56q9.72,9.7,20,18.55C1018.51,1106.52,868.61,1084.31,770.18,985.88ZM1559.25,791,1355.56,587.34c55.62-9.72,114.1,7.7,155,48.63A174.52,174.52,0,0,1,1562,760.21,178.79,178.79,0,0,1,1559.25,791Zm-142,142.08a178.69,178.69,0,0,1-31,2.74,174.53,174.53,0,0,1-124.26-51.37L964.91,587.35a177.72,177.72,0,0,1,31-2.75A174.51,174.51,0,0,1,1120.14,636ZM823,729.42l203.7,203.67c-55.63,9.72-114.11-7.7-155-48.63a174.53,174.53,0,0,1-51.38-124.25A178.67,178.67,0,0,1,823,729.42ZM1612,985.88c-124.46,124.44-327,124.44-451.41,0L844.9,670.21a177,177,0,0,1,60.84-60.88L1221.49,925A233.1,233.1,0,0,0,1551.17,595.4c-63.46-63.45-158.67-84.34-242.47-54.91L1262.17,494q-9.69-9.68-19.94-18.55c121.48-61.52,271.37-39.29,369.8,59.12,60.19,60.17,93.33,140.32,93.33,225.67S1672.22,925.71,1612,985.88Z" transform="translate(-619.48 -383.79)" fill="url(#bfd928d8-dc8b-4181-9f3a-bdd0e97e53e3)"/><path d="M948.3,651.88A118.46,118.46,0,0,1,995.88,642a120.07,120.07,0,0,1,26.69,3l-57.66-57.64a173.56,173.56,0,0,0-59.17,22Z" transform="translate(-619.48 -383.79)" fill="#661dd8" opacity="0.7"/><path d="M880.71,787.16a119.31,119.31,0,0,1,6.76-74.38L844.9,670.21A173.56,173.56,0,0,0,823,729.42Z" transform="translate(-619.48 -383.79)" fill="#5b03e5" opacity="0.7"/><path d="M1433.91,868.55a118.29,118.29,0,0,1-47.58,9.91,120,120,0,0,1-26.68-3l57.65,57.65a173.5,173.5,0,0,0,59.17-22Z" transform="translate(-619.48 -383.79)" fill="#0b81f7" opacity="0.7"/><path d="M1501.5,733.27a119.31,119.31,0,0,1-6.76,74.38l42.57,42.57A173.64,173.64,0,0,0,1559.25,791Z" transform="translate(-619.48 -383.79)" fill="#0b81f7" opacity="0.7"/></svg>