<svg width="414" height="523" viewBox="0 0 414 523" fill="none" xmlns="http://www.w3.org/2000/svg">
<path d="M104.991 299.015C145.518 299.015 178.372 265.596 178.372 224.372C178.372 183.148 145.518 149.729 104.991 149.729C64.464 149.729 31.6104 183.148 31.6104 224.372C31.6104 265.596 64.464 299.015 104.991 299.015Z" fill="url(#paint0_linear)"/>
<g opacity="0.69">
<g opacity="0.69">
<path opacity="0.69" d="M370.968 157.027L361.715 147.85L370.968 138.6L372.486 140.118L364.823 147.85L372.486 155.509L370.968 157.027Z" fill="#DCEEFA"/>
</g>
<g opacity="0.69">
<path opacity="0.69" d="M364.1 157.027L354.919 147.85L364.1 138.6L365.691 140.118L357.955 147.85L365.691 155.509L364.1 157.027Z" fill="#DCEEFA"/>
</g>
</g>
<g opacity="0.69">
<g opacity="0.69">
<path opacity="0.69" d="M-8.22447 235.717L-9.74268 234.126L-2.07947 226.467L-9.74268 218.736L-8.22447 217.218L0.956932 226.467L-8.22447 235.717Z" fill="#77B4FF"/>
</g>
<g opacity="0.69">
<path opacity="0.69" d="M-1.35645 235.717L-2.94684 234.126L4.78911 226.467L-2.94684 218.736L-1.35645 217.218L7.82552 226.467L-1.35645 235.717Z" fill="#77B4FF"/>
</g>
</g>
<path opacity="0.45" d="M385.5 356.244L392.513 359.857C393.236 360.074 393.959 360.218 394.682 360.363L383.765 354.726C384.343 355.305 384.921 355.81 385.5 356.244Z" fill="#CDE3FF"/>
<path opacity="0.45" d="M381.741 352.559L397.646 360.724C398.007 360.724 398.441 360.724 398.802 360.724L381.09 351.62C381.307 351.908 381.523 352.198 381.741 352.559Z" fill="#CDE3FF"/>
<path opacity="0.45" d="M380.222 349.958L400.899 360.579C401.188 360.507 401.478 360.507 401.839 360.435L379.933 349.163C380.005 349.451 380.078 349.668 380.222 349.958Z" fill="#CDE3FF"/>
<path opacity="0.45" d="M379.716 347.862L403.502 360.073C403.791 360.001 404.008 359.929 404.297 359.856L379.716 347.211C379.644 347.428 379.644 347.645 379.716 347.862Z" fill="#CDE3FF"/>
<path opacity="0.45" d="M379.789 346.128L405.743 359.424C405.96 359.351 406.177 359.279 406.394 359.134L379.934 345.55C379.789 345.694 379.789 345.911 379.789 346.128Z" fill="#CDE3FF"/>
<path opacity="0.45" d="M380.15 344.466L407.623 358.629C407.84 358.557 407.984 358.412 408.201 358.34L380.295 343.96C380.222 344.105 380.15 344.322 380.15 344.466Z" fill="#CDE3FF"/>
<path opacity="0.45" d="M380.656 342.948L409.285 357.689C409.43 357.617 409.647 357.472 409.791 357.328L380.8 342.443C380.801 342.659 380.728 342.804 380.656 342.948Z" fill="#CDE3FF"/>
<path opacity="0.45" d="M381.307 341.503L410.803 356.677C410.948 356.533 411.165 356.46 411.309 356.316L381.595 340.997C381.523 341.142 381.451 341.359 381.307 341.503Z" fill="#CDE3FF"/>
<path opacity="0.45" d="M382.463 340.058C382.391 340.13 382.391 340.13 382.319 340.202L412.25 355.593C412.394 355.449 412.539 355.376 412.683 355.232L382.825 339.913C382.681 339.914 382.536 339.986 382.463 340.058Z" fill="#CDE3FF"/>
<path opacity="0.45" d="M385.138 339.624C384.994 339.624 384.921 339.624 384.777 339.624L413.478 354.365C413.623 354.221 413.695 354.076 413.84 353.932L385.861 339.552C385.572 339.624 385.356 339.624 385.138 339.624Z" fill="#CDE3FF"/>
<path opacity="0.45" d="M387.597 339.336L414.491 353.137C414.635 352.993 414.708 352.848 414.78 352.704L388.248 339.119C388.103 339.191 387.885 339.263 387.597 339.336Z" fill="#CDE3FF"/>
<path opacity="0.45" d="M389.621 338.54L415.43 351.836C415.502 351.692 415.647 351.547 415.72 351.402L390.199 338.323C390.055 338.324 389.837 338.468 389.621 338.54Z" fill="#CDE3FF"/>
<path opacity="0.45" d="M391.283 337.601L416.298 350.463C416.37 350.319 416.442 350.174 416.515 349.958L391.789 337.24C391.573 337.312 391.428 337.457 391.283 337.601Z" fill="#CDE3FF"/>
<path opacity="0.45" d="M392.585 336.445L416.876 348.946C416.948 348.802 417.021 348.585 417.093 348.44L392.947 336.012C392.874 336.228 392.729 336.3 392.585 336.445Z" fill="#CDE3FF"/>
<path opacity="0.45" d="M393.669 335.217L417.383 347.428C417.455 347.284 417.455 347.067 417.527 346.923L393.959 334.783C393.886 334.928 393.814 335.072 393.669 335.217Z" fill="#CDE3FF"/>
<path opacity="0.45" d="M394.537 333.844L417.744 345.767C417.744 345.55 417.816 345.405 417.816 345.188L394.826 333.338C394.754 333.555 394.681 333.699 394.537 333.844Z" fill="#CDE3FF"/>
<path opacity="0.45" d="M417.889 343.454L395.404 331.892C395.332 332.037 395.26 332.254 395.26 332.398L417.889 344.032C417.889 343.815 417.889 343.671 417.889 343.454Z" fill="#CDE3FF"/>
<path opacity="0.45" d="M417.671 341.503L395.766 330.231C395.766 330.448 395.694 330.592 395.694 330.809L417.816 342.154C417.744 341.936 417.744 341.72 417.671 341.503Z" fill="#CDE3FF"/>
<path opacity="0.45" d="M417.093 339.408L396.2 328.641C396.128 328.785 396.056 328.93 395.983 329.147L417.311 340.13C417.31 339.914 417.238 339.697 417.093 339.408Z" fill="#CDE3FF"/>
<path opacity="0.45" d="M416.009 337.168C415.937 337.096 415.937 337.024 415.865 337.024L397.357 327.486C397.14 327.558 396.995 327.703 396.851 327.847L416.371 337.891C416.298 337.673 416.153 337.384 416.009 337.168Z" fill="#CDE3FF"/>
<path opacity="0.45" d="M412.611 333.483L400.682 327.341C400.176 327.196 399.597 327.124 399.092 327.124L414.201 334.928C413.695 334.422 413.189 333.988 412.611 333.483Z" fill="#CDE3FF"/>
<path opacity="0.7" d="M394.031 165.77C392.73 164.108 391.428 162.518 390.127 160.928L196.518 309.204C197.675 310.938 198.904 312.6 200.205 314.262C207.363 323.583 215.532 331.532 224.496 338.179L226.954 335.216L322.024 312.527C321.951 313.755 321.879 314.984 321.806 316.213L225.797 339.119C226.52 339.624 227.315 340.203 228.038 340.708L321.589 318.38C321.517 319.609 321.3 320.548 321.156 321.849L231.726 343.165C232.16 343.455 232.666 343.744 233.172 344.032L320.94 323.077C320.65 324.377 320.361 325.968 319.999 327.268L237.943 346.85C238.738 347.284 239.534 347.717 240.257 348.078L319.565 329.147C319.204 330.158 318.842 331.459 318.481 332.76L244.811 350.319C245.679 350.752 246.547 351.114 247.414 351.547L317.685 334.783C317.252 336.084 316.818 337.385 316.239 338.469L252.547 353.643C253.703 354.076 254.86 354.51 256.017 354.943L315.227 340.78C314.504 342.154 313.781 343.526 312.986 344.971L262.451 357.039C263.246 357.256 263.969 357.472 264.764 357.689L312.191 346.417C311.396 348.151 310.383 349.596 309.444 351.041L273.079 359.712C274.525 360.001 275.971 360.29 277.417 360.507L307.564 353.353C307.203 354.076 306.769 354.437 306.336 354.943C305.613 355.81 304.962 356.677 304.167 357.472L286.598 361.663C288.984 361.88 291.37 362.024 293.756 362.096L301.708 360.218C301.057 360.868 300.407 361.518 299.756 362.096C324.843 361.591 350.002 353.353 371.402 336.95C424.901 295.908 435.022 219.314 394.031 165.77ZM293.178 253.709C293.25 253.781 293.395 253.926 293.467 253.926L292.888 254.07L293.178 253.709ZM290.792 256.671L295.491 255.515C295.708 255.804 295.853 255.732 295.997 255.876C297.009 256.671 297.949 257.611 298.889 258.334L287.033 261.151L290.792 256.671ZM285.008 263.825L300.696 260.067C301.636 261.079 302.432 261.802 303.299 262.741L281.683 267.872L285.008 263.825ZM280.453 269.461L304.239 263.825C305.106 264.837 305.974 265.848 306.841 266.86L276.766 274.013L280.453 269.461ZM274.67 276.615L308.143 268.594C308.866 269.606 309.444 270.401 310.167 271.485L271.344 280.734L274.67 276.615ZM269.248 283.335L311.324 273.291C311.903 274.086 312.481 275.169 312.987 275.892L265.922 287.092L269.248 283.335ZM264.26 289.332L313.782 277.482C314.361 278.566 315.011 279.939 315.59 281.023L260.067 294.246L264.26 289.332ZM258.837 295.836L316.096 282.179C316.674 283.552 317.108 284.635 317.542 285.792L255.15 300.605L258.837 295.836ZM253.054 302.917L318.12 287.382C318.481 288.538 318.843 289.622 319.132 290.489L249.728 307.036L253.054 302.917ZM248.499 308.553L319.494 291.645C319.855 293.09 320.144 294.246 320.506 295.619L244.45 313.756L248.499 308.553ZM242.643 315.707L320.722 297.064C320.94 298.221 321.156 299.377 321.301 300.244L239.39 319.754L242.643 315.707ZM237.293 322.499L321.518 302.411C321.662 303.568 321.735 304.507 321.807 305.663L233.967 326.618L237.293 322.499ZM228.184 333.7L232.305 328.497L321.952 307.108C322.024 308.625 322.024 309.782 322.096 311.299L228.184 333.7Z" fill="url(#paint1_linear)"/>
<path d="M249.005 380.884L285.804 372.069C288.551 370.48 291.299 368.962 293.829 366.794L239.39 379.801C242.643 380.595 245.751 380.74 249.005 380.884Z" fill="#EBF2FE"/>
<path d="M293.684 362.025L229.34 377.343C231.437 378.066 233.534 378.789 235.703 379.15L296.793 364.554C297.805 363.759 298.745 362.892 299.685 361.952C297.732 362.097 295.708 362.097 293.684 362.025Z" fill="#EBF2FE"/>
<path d="M301.637 360.146L293.684 362.025C295.708 362.097 297.661 362.097 299.685 362.025C300.335 361.447 300.986 360.796 301.637 360.146Z" fill="white"/>
<path d="M205.338 361.591L204.398 362.748C205.121 363.398 205.844 364.193 206.567 364.626L252.476 353.643C250.74 352.993 249.078 352.27 247.415 351.547L205.338 361.591Z" fill="#EBF2FE"/>
<path d="M317.686 334.783L247.414 351.547C249.077 352.27 250.812 352.993 252.475 353.643L316.168 338.469C316.819 337.457 317.252 336.084 317.686 334.783Z" fill="white"/>
<path d="M216.616 348.007L212.423 352.92L238.016 346.851C236.426 345.984 234.835 345.044 233.244 344.033L216.616 348.007Z" fill="#EBF2FE"/>
<path d="M320.94 323.15L233.172 344.105C234.762 345.044 236.353 345.984 237.944 346.923L320 327.341C320.361 325.968 320.65 324.378 320.94 323.15Z" fill="white"/>
<path d="M210.76 355.16L207.435 359.279L244.812 350.391C243.294 349.669 241.775 348.946 240.329 348.151L210.76 355.16Z" fill="#EBF2FE"/>
<path d="M319.566 329.219L240.257 348.151C241.775 348.946 243.221 349.668 244.74 350.391L318.554 332.76C318.843 331.459 319.204 330.231 319.566 329.219Z" fill="white"/>
<path d="M208.591 366.288C209.82 367.227 211.122 368.095 212.423 369.034L262.452 357.111C260.283 356.46 258.115 355.81 256.018 355.015L208.591 366.288Z" fill="#EBF2FE"/>
<path d="M315.228 340.853L256.018 355.016C258.187 355.811 260.283 356.461 262.452 357.112L312.987 345.045C313.782 343.599 314.505 342.226 315.228 340.853Z" fill="white"/>
<path d="M295.997 255.949C295.853 255.804 295.708 255.804 295.492 255.587L290.793 256.744L287.033 261.296L298.889 258.478C298.022 257.683 297.009 256.744 295.997 255.949Z" fill="white"/>
<path d="M319.494 291.645L248.499 308.553L244.378 313.756L320.434 295.619C320.144 294.246 319.855 293.09 319.494 291.645Z" fill="white"/>
<path d="M221.026 373.947C222.617 374.742 224.28 375.609 225.942 376.115L286.527 361.664C283.49 361.374 280.382 361.013 277.345 360.507L221.026 373.947Z" fill="#EBF2FE"/>
<path d="M306.263 354.871C306.697 354.366 307.131 353.932 307.492 353.282L277.345 360.435C280.381 360.941 283.418 361.302 286.526 361.591L304.094 357.4C304.817 356.678 305.54 355.738 306.263 354.871Z" fill="white"/>
<path d="M293.178 253.709L292.888 254.07L293.467 253.926C293.395 253.926 293.25 253.781 293.178 253.709Z" fill="white"/>
<path d="M213.797 369.901C215.315 371.057 216.833 371.924 218.351 372.792L273.007 359.713C270.26 359.134 267.44 358.484 264.693 357.762L213.797 369.901Z" fill="#EBF2FE"/>
<path d="M312.119 346.417L264.693 357.689C267.44 358.412 270.187 359.062 273.007 359.64L309.371 350.969C310.384 349.596 311.324 348.151 312.119 346.417Z" fill="white"/>
<path d="M221.171 342.371L217.845 346.489L231.726 343.165C230.497 342.371 229.268 341.576 228.039 340.709L221.171 342.371Z" fill="#EBF2FE"/>
<path d="M321.59 318.38L228.039 340.708C229.268 341.575 230.498 342.37 231.727 343.165L321.157 321.848C321.301 320.621 321.518 319.609 321.59 318.38Z" fill="white"/>
<path d="M311.324 273.291L269.247 283.335L265.849 287.165L312.914 275.964C312.481 275.097 311.903 274.086 311.324 273.291Z" fill="white"/>
<path d="M304.239 263.753L280.454 269.389L276.695 273.941L306.77 266.788C305.974 265.776 305.107 264.765 304.239 263.753Z" fill="white"/>
<path d="M308.143 268.594L274.67 276.615L271.344 280.734L310.167 271.484C309.517 270.401 308.866 269.606 308.143 268.594Z" fill="white"/>
<path d="M313.782 277.554L264.26 289.405L260.067 294.318L315.59 281.095C315.083 279.939 314.433 278.638 313.782 277.554Z" fill="white"/>
<path d="M300.697 260.068L285.008 263.825L281.682 267.944L303.299 262.813C302.432 261.802 301.637 261.079 300.697 260.068Z" fill="white"/>
<path d="M223.195 339.769L225.798 339.119C225.364 338.83 224.931 338.468 224.497 338.18L223.195 339.769Z" fill="#EBF2FE"/>
<path d="M322.024 312.527L226.955 335.217L224.497 338.18C224.931 338.469 225.364 338.83 225.798 339.119L321.808 316.213C321.879 314.984 321.951 313.756 322.024 312.527Z" fill="white"/>
<path d="M276.694 376.404L259.054 380.595C265.055 379.8 271.055 378.644 276.694 376.404Z" fill="#EBF2FE"/>
<path d="M321.59 302.339L237.366 322.427L234.04 326.545L321.88 305.59C321.735 304.435 321.735 303.568 321.59 302.339Z" fill="white"/>
<path d="M232.305 328.497L228.184 333.7L322.024 311.3C322.024 309.782 322.024 308.554 321.88 307.109L232.305 328.497Z" fill="white"/>
<path d="M318.12 287.454L253.053 302.989L249.727 307.108L319.132 290.561C318.843 289.694 318.553 288.538 318.12 287.454Z" fill="white"/>
<path d="M320.722 297.137L242.643 315.779L239.317 319.898L321.228 300.388C321.156 299.449 320.94 298.293 320.722 297.137Z" fill="white"/>
<path d="M316.096 282.179L258.837 295.836L255.15 300.677L317.469 285.791C317.108 284.635 316.674 283.552 316.096 282.179Z" fill="white"/>
<path d="M357.088 204.139H359.257V209.197H357.088V204.139ZM357.088 247.495H359.257V253.275H357.088V247.495ZM353.473 192.578H356.365V198.358H353.473V192.578ZM353.473 235.933H356.365V241.714H353.473V235.933ZM349.858 181.739H352.75V186.797H349.858V181.739ZM349.858 225.094H352.75V230.875H349.858V225.094ZM349.858 269.895H352.75V275.675H349.858V269.895ZM344.797 170.178H347.689V175.958H344.797V170.178ZM344.797 214.978H347.689V220.759H344.797V214.978ZM344.797 258.334H347.689V264.114H344.797V258.334ZM341.182 204.139H343.351V209.197H341.182V204.139ZM341.182 247.495H343.351V253.275H341.182V247.495ZM337.568 192.578H339.737V198.358H337.568V192.578ZM337.568 235.933H339.737V241.714H337.568V235.933ZM337.568 280.734H339.737V285.791H337.568V280.734ZM333.23 181.739H335.399V186.797H333.23V181.739ZM333.23 225.094H335.399V230.875H333.23V225.094ZM333.23 269.895H335.399V275.675H333.23V269.895ZM328.169 170.178H331.061V175.958H328.169V170.178ZM328.169 214.978H331.061V220.759H328.169V214.978ZM328.169 258.334H331.061V264.114H328.169V258.334ZM328.169 303.134H331.061V308.191H328.169V303.134ZM324.554 160.061H327.446V164.397H324.554V160.061ZM324.554 204.139H327.446V209.197H324.554V204.139ZM324.554 247.495H327.446V253.275H324.554V247.495ZM324.554 292.295H327.446V297.353H324.554V292.295ZM320.94 148.5H323.109V153.558H320.94V148.5ZM320.94 192.578H323.109V198.358H320.94V192.578ZM320.94 235.933H323.109V241.714H320.94V235.933ZM320.94 280.734H323.109V285.791H320.94V280.734ZM316.602 137.661H319.494V142.719H316.602V137.661ZM316.602 181.739H319.494V186.797H316.602V181.739ZM316.602 225.094H319.494V230.875H316.602V225.094ZM316.602 269.895H319.494V275.675H316.602V269.895ZM316.602 314.695H319.494V319.753H316.602V314.695ZM312.264 170.178H315.156V175.958H312.264V170.178ZM312.264 214.978H315.156V220.759H312.264V214.978ZM312.264 258.334H315.156V264.114H312.264V258.334ZM312.264 303.134H315.156V308.191H312.264V303.134ZM308.649 160.061H310.818V164.397H308.649V160.061ZM308.649 204.139H310.818V209.197H308.649V204.139ZM308.649 247.495H310.818V253.275H308.649V247.495ZM308.649 292.295H310.818V297.353H308.649V292.295ZM304.312 148.5H307.204V153.558H304.312V148.5ZM304.312 192.578H307.204V198.358H304.312V192.578ZM304.312 235.933H307.204V241.714H304.312V235.933ZM304.312 280.734H307.204V285.791H304.312V280.734ZM300.697 137.661H303.589V142.719H300.697V137.661ZM300.697 181.739H303.589V186.797H300.697V181.739ZM300.697 225.094H303.589V230.875H300.697V225.094ZM300.697 269.895H303.589V275.675H300.697V269.895ZM300.697 314.695H303.589V319.753H300.697V314.695ZM295.636 126.1H298.528V131.158H295.636V126.1ZM295.636 170.178H298.528V175.958H295.636V170.178ZM295.636 214.978H298.528V220.759H295.636V214.978ZM295.636 258.334H298.528V264.114H295.636V258.334ZM295.636 303.134H298.528V308.191H295.636V303.134ZM292.021 160.061H294.19V164.397H292.021V160.061ZM292.021 204.139H294.19V209.197H292.021V204.139ZM292.021 247.495H294.19V253.275H292.021V247.495ZM292.021 292.295H294.19V297.353H292.021V292.295ZM288.407 148.5H290.576V153.558H288.407V148.5ZM288.407 192.578H290.576V198.358H288.407V192.578ZM288.407 235.933H290.576V241.714H288.407V235.933ZM288.407 280.734H290.576V285.791H288.407V280.734ZM288.407 325.534H290.576V330.592H288.407V325.534ZM284.069 137.661H286.961V142.719H284.069V137.661ZM284.069 181.739H286.961V186.797H284.069V181.739ZM284.069 225.094H286.961V230.875H284.069V225.094ZM284.069 269.895H286.961V275.675H284.069V269.895ZM284.069 314.695H286.961V319.753H284.069V314.695ZM279.731 126.1H281.9V131.158H279.731V126.1ZM279.731 170.178H281.9V175.958H279.731V170.178ZM279.731 214.978H281.9V220.759H279.731V214.978ZM279.731 258.334H281.9V264.114H279.731V258.334ZM279.731 303.134H281.9V308.191H279.731V303.134ZM275.393 115.261H278.285V120.319H275.393V115.261ZM275.393 160.061H278.285V164.397H275.393V160.061ZM275.393 204.139H278.285V209.197H275.393V204.139ZM275.393 247.495H278.285V253.275H275.393V247.495ZM275.393 292.295H278.285V297.353H275.393V292.295ZM275.393 337.096H278.285V342.154H275.393V337.096ZM271.778 148.5H274.67V153.558H271.778V148.5ZM271.778 192.578H274.67V198.358H271.778V192.578ZM271.778 235.933H274.67V241.714H271.778V235.933ZM271.778 280.734H274.67V285.791H271.778V280.734ZM271.778 325.534H274.67V330.592H271.778V325.534ZM268.163 137.661H270.333V142.719H268.163V137.661ZM268.163 181.739H270.333V186.797H268.163V181.739ZM268.163 225.094H270.333V230.875H268.163V225.094ZM268.163 269.895H270.333V275.675H268.163V269.895ZM268.163 314.695H270.333V319.753H268.163V314.695ZM263.102 126.1H265.994V131.158H263.102V126.1ZM263.102 170.178H265.994V175.958H263.102V170.178ZM263.102 214.978H265.994V220.759H263.102V214.978ZM263.102 258.334H265.994V264.114H263.102V258.334ZM263.102 303.134H265.994V308.191H263.102V303.134ZM258.765 115.261H262.38V120.319H258.765V115.261ZM258.765 160.061H262.38V164.397H258.765V160.061ZM258.765 204.139H262.38V209.197H258.765V204.139ZM258.765 247.495H262.38V253.275H258.765V247.495ZM258.765 292.295H262.38V297.353H258.765V292.295ZM258.765 337.096H262.38V342.154H258.765V337.096ZM255.15 148.5H258.042V153.558H255.15V148.5ZM255.15 192.578H258.042V198.358H255.15V192.578ZM255.15 235.933H258.042V241.714H255.15V235.933ZM255.15 280.734H258.042V285.791H255.15V280.734ZM255.15 325.534H258.042V330.592H255.15V325.534ZM251.535 137.661H254.427V142.719H251.535V137.661ZM251.535 181.739H254.427V186.797H251.535V181.739ZM251.535 225.094H254.427V230.875H251.535V225.094ZM251.535 269.895H254.427V275.675H251.535V269.895ZM251.535 314.695H254.427V319.753H251.535V314.695ZM247.197 126.1H249.366V131.158H247.197V126.1ZM247.197 170.178H249.366V175.958H247.197V170.178ZM247.197 214.978H249.366V220.759H247.197V214.978ZM247.197 258.334H249.366V264.114H247.197V258.334ZM247.197 303.134H249.366V308.191H247.197V303.134ZM113.45 209.197H111.281V204.139H113.45V209.197ZM117.788 264.114H115.618V258.334H117.788V264.114ZM117.788 220.759H115.618V214.978H117.788V220.759ZM122.126 275.676H119.957V269.895H122.126V275.676ZM122.126 230.875H119.957V225.094H122.126V230.875ZM122.126 186.797H119.957V181.739H122.126V186.797ZM126.463 285.791H124.294V280.734H126.463V285.791ZM126.463 241.714H124.294V235.934H126.463V241.714ZM126.463 198.359H124.294V192.578H126.463V198.359ZM130.078 253.275H127.186V247.495H130.078V253.275ZM130.078 209.197H127.186V204.139H130.078V209.197ZM133.693 264.114H131.524V258.334H133.693V264.114ZM133.693 220.759H131.524V214.978H133.693V220.759ZM133.693 175.958H131.524V170.178H133.693V175.958ZM138.754 275.676H135.862V269.895H138.754V275.676ZM138.754 230.875H135.862V225.094H138.754V230.875ZM138.754 186.797H135.862V181.739H138.754V186.797ZM143.091 285.791H140.199V280.734H143.091V285.791ZM143.091 241.714H140.199V235.934H143.091V241.714ZM143.091 198.359H140.199V192.578H143.091V198.359ZM143.091 153.558H140.199V148.5H143.091V153.558ZM146.706 297.353H143.814V292.295H146.706V297.353ZM146.706 253.275H143.814V247.495H146.706V253.275ZM146.706 209.197H143.814V204.139H146.706V209.197ZM146.706 164.397H143.814V160.061H146.706V164.397ZM150.321 308.192H148.152V303.134H150.321V308.192ZM150.321 264.114H148.152V258.334H150.321V264.114ZM150.321 220.759H148.152V214.978H150.321V220.759ZM150.321 175.958H148.152V170.178H150.321V175.958ZM155.382 319.754H152.49V314.696H155.382V319.754ZM155.382 275.676H152.49V269.895H155.382V275.676ZM155.382 230.875H152.49V225.094H155.382V230.875ZM155.382 186.797H152.49V181.739H155.382V186.797ZM155.382 142.719H152.49V137.661H155.382V142.719ZM158.996 285.791H156.104V280.734H158.996V285.791ZM158.996 241.714H156.104V235.934H158.996V241.714ZM158.996 198.359H156.104V192.578H158.996V198.359ZM158.996 153.558H156.104V148.5H158.996V153.558ZM162.611 297.353H159.719V292.295H162.611V297.353ZM162.611 253.275H159.719V247.495H162.611V253.275ZM162.611 209.197H159.719V204.139H162.611V209.197ZM162.611 164.397H159.719V160.061H162.611V164.397ZM166.949 308.192H164.057V303.134H166.949V308.192ZM166.949 264.114H164.057V258.334H166.949V264.114ZM166.949 220.759H164.057V214.978H166.949V220.759ZM166.949 175.958H164.057V170.178H166.949V175.958ZM166.949 131.158H164.057V126.1H166.949V131.158ZM171.287 319.754H169.118V314.696H171.287V319.754ZM171.287 275.676H169.118V269.895H171.287V275.676ZM171.287 230.875H169.118V225.094H171.287V230.875ZM171.287 186.797H169.118V181.739H171.287V186.797ZM171.287 142.719H169.118V137.661H171.287V142.719ZM175.624 330.592H172.732V325.534H175.624V330.592ZM175.624 285.791H172.732V280.734H175.624V285.791ZM175.624 241.714H172.732V235.934H175.624V241.714ZM175.624 198.359H172.732V192.578H175.624V198.359ZM175.624 153.558H172.732V148.5H175.624V153.558ZM179.239 297.353H177.07V292.295H179.239V297.353ZM179.239 253.275H177.07V247.495H179.239V253.275ZM179.239 209.197H177.07V204.139H179.239V209.197ZM179.239 164.397H177.07V160.061H179.239V164.397ZM182.854 308.192H180.685V303.134H182.854V308.192ZM182.854 264.114H180.685V258.334H182.854V264.114ZM182.854 220.759H180.685V214.978H182.854V220.759ZM182.854 175.958H180.685V170.178H182.854V175.958ZM182.854 131.158H180.685V126.1H182.854V131.158ZM187.915 319.754H185.023V314.696H187.915V319.754ZM187.915 275.676H185.023V269.895H187.915V275.676ZM187.915 230.875H185.023V225.094H187.915V230.875ZM187.915 186.797H185.023V181.739H187.915V186.797ZM187.915 142.719H185.023V137.661H187.915V142.719ZM191.53 330.592H188.638V325.534H191.53V330.592ZM191.53 285.791H188.638V280.734H191.53V285.791ZM191.53 241.714H188.638V235.934H191.53V241.714ZM191.53 198.359H188.638V192.578H191.53V198.359ZM191.53 153.558H188.638V148.5H191.53V153.558ZM195.144 342.154H192.975V337.096H195.144V342.154ZM195.144 297.353H192.975V292.295H195.144V297.353ZM195.144 253.275H192.975V247.495H195.144V253.275ZM195.144 209.197H192.975V204.139H195.144V209.197ZM195.144 164.397H192.975V160.061H195.144V164.397ZM195.144 120.319H192.975V115.261H195.144V120.319ZM199.482 308.192H196.59V303.134H199.482V308.192ZM199.482 264.114H196.59V258.334H199.482V264.114ZM199.482 220.759H196.59V214.978H199.482V220.759ZM199.482 175.958H196.59V170.178H199.482V175.958ZM199.482 131.158H196.59V126.1H199.482V131.158ZM204.543 319.754H201.651V314.696H204.543V319.754ZM204.543 275.676H201.651V269.895H204.543V275.676ZM204.543 230.875H201.651V225.094H204.543V230.875ZM204.543 186.797H201.651V181.739H204.543V186.797ZM204.543 142.719H201.651V137.661H204.543V142.719ZM208.158 330.592H205.266V325.534H208.158V330.592ZM208.158 285.791H205.266V280.734H208.158V285.791ZM208.158 241.714H205.266V235.934H208.158V241.714ZM208.158 198.359H205.266V192.578H208.158V198.359ZM208.158 153.558H205.266V148.5H208.158V153.558ZM211.772 342.154H208.88V337.096H211.772V342.154ZM211.772 297.353H208.88V292.295H211.772V297.353ZM211.772 253.275H208.88V247.495H211.772V253.275ZM211.772 209.197H208.88V204.139H211.772V209.197ZM211.772 164.397H208.88V160.061H211.772V164.397ZM211.772 120.319H208.88V115.261H211.772V120.319ZM216.11 308.192H213.218V303.134H216.11V308.192ZM216.11 264.114H213.218V258.334H216.11V264.114ZM216.11 220.759H213.218V214.978H216.11V220.759ZM216.11 175.958H213.218V170.178H216.11V175.958ZM216.11 131.158H213.218V126.1H216.11V131.158ZM220.448 319.754H218.279V314.696H220.448V319.754ZM220.448 275.676H218.279V269.895H220.448V275.676ZM220.448 230.875H218.279V225.094H220.448V230.875ZM220.448 186.797H218.279V181.739H220.448V186.797ZM220.448 142.719H218.279V137.661H220.448V142.719ZM224.786 330.592H221.894V325.534H224.786V330.592ZM224.786 285.791H221.894V280.734H224.786V285.791ZM224.786 241.714H221.894V235.934H224.786V241.714ZM224.786 198.359H221.894V192.578H224.786V198.359ZM224.786 153.558H221.894V148.5H224.786V153.558ZM228.4 342.154H225.508V337.096H228.4V342.154ZM228.4 297.353H225.508V292.295H228.4V297.353ZM228.4 253.275H225.508V247.495H228.4V253.275ZM228.4 209.197H225.508V204.139H228.4V209.197ZM228.4 164.397H225.508V160.061H228.4V164.397ZM228.4 120.319H225.508V115.261H228.4V120.319ZM232.015 308.192H229.123V303.134H232.015V308.192ZM232.015 264.114H229.123V258.334H232.015V264.114ZM232.015 220.759H229.123V214.978H232.015V220.759ZM232.015 175.958H229.123V170.178H232.015V175.958ZM232.015 131.158H229.123V126.1H232.015V131.158ZM237.799 319.754H234.907V314.696H237.799V319.754ZM237.799 275.676H234.907V269.895H237.799V275.676ZM237.799 230.875H234.907V225.094H237.799V230.875ZM237.799 186.797H234.907V181.739H237.799V186.797ZM237.799 142.719H234.907V137.661H237.799V142.719ZM242.137 330.592H239.245V325.534H242.137V330.592ZM242.137 285.791H239.245V280.734H242.137V285.791ZM242.137 241.714H239.245V235.934H242.137V241.714ZM242.137 198.359H239.245V192.578H242.137V198.359ZM242.137 153.558H239.245V148.5H242.137V153.558ZM242.137 108.758H239.245V103.7H242.137V108.758ZM245.751 342.154H242.859V337.096H245.751V342.154ZM245.751 297.353H242.859V292.295H245.751V297.353ZM245.751 253.275H242.859V247.495H245.751V253.275ZM245.751 209.197H242.859V204.139H245.751V209.197ZM245.751 164.397H242.859V160.061H245.751V164.397ZM242.86 120.319V115.261H245.752V120.319H242.86Z" fill="#EEEEEE"/>
<path d="M124.294 149.222H114.173V194.456L124.294 204.428V149.222Z" fill="white"/>
<path d="M105.497 149.222H95.376V175.958L105.497 185.93V149.222Z" fill="white"/>
<path d="M86.7004 149.222H77.3019V157.46L86.7004 167.431V149.222Z" fill="white"/>
<path d="M160.442 149.222H151.044V231.453L160.442 241.064V149.222Z" fill="white"/>
<path d="M169.118 249.518L177.793 258.044V149.222H169.118V249.518Z" fill="white"/>
<path d="M142.368 149.222H132.246V212.955L142.368 222.927V149.222Z" fill="white"/>
<path d="M219.612 225.201C214.552 231.068 209.426 236.895 203.631 242.036C201.92 243.443 204.312 254.6 204.652 260.882C204.813 263.861 205.027 267.003 206.689 269.479C210.394 266.065 216.485 266.328 220.118 262.836C220.44 262.527 220.746 262.176 220.875 261.748C221.287 260.377 219.589 259.161 218.172 259.364C216.755 259.567 215.627 260.597 214.45 261.412C213.274 262.227 211.723 262.865 210.449 262.212C211.368 259.896 211.479 257.267 210.756 254.882C210.439 253.833 209.961 252.759 210.185 251.687C210.566 249.872 212.637 249.093 214.276 248.23C220.313 245.054 223.169 237.436 229.42 234.707C225.223 233.035 221.272 223.278 219.612 225.201Z" fill="#FFBEB6"/>
<path d="M119.943 254.417C118.217 253.557 116.359 252.562 115.597 250.79C114.834 249.018 116.055 246.401 117.966 246.65C120.508 246.982 120.879 251.426 123.436 251.621C122.489 254.224 121.541 256.827 120.594 259.43C115.445 258.494 110.911 254.704 109.072 249.8C108.853 249.213 108.666 248.582 108.785 247.966C109.119 246.232 111.656 245.852 113.104 246.862C114.551 247.872 115.225 249.634 116.052 251.194C116.878 252.757 118.18 254.345 119.943 254.417Z" fill="#F2A19C"/>
<path d="M131.945 247.912C133.67 245.964 135.465 243.845 135.802 241.263C136.036 239.478 135.389 237.728 134.86 236.008C133.094 230.252 131.052 230.306 127.888 227.646C124.022 232.575 123.304 238.328 126.499 243.717C123.913 248.071 121.326 252.425 118.74 256.779C116.23 252.571 110.626 251.688 105.749 251.248C104.721 251.155 103.62 251.078 102.721 251.585C101.822 252.093 101.328 253.432 102.032 254.186C107.153 256.605 112.274 259.025 117.395 261.445C118.843 262.129 120.5 262.824 121.988 262.236C123.774 261.532 124.403 259.394 125.122 257.612C126.608 253.926 129.311 250.888 131.945 247.912Z" fill="#FFBEB6"/>
<path d="M146.031 132.293C142.291 133.088 127.072 131.911 123.332 132.707C119.552 133.511 115.603 135.638 119.427 141.826C120.293 143.229 124.952 143.694 125.127 145.335C128.545 177.39 139.566 209.012 136.386 241.092C140.888 240.806 145.193 242.749 149.608 243.675C153.334 244.456 157.17 244.513 160.978 244.548C174.041 244.669 187.106 244.569 200.165 244.246C204.497 211.693 208.835 179.091 210.369 146.286C210.529 142.869 211.803 135.543 209.893 132.706C207.676 129.412 201.595 131.404 198.264 131.427C182.743 131.54 167.09 136.71 151.957 133.256C149.806 132.766 146.746 132.533 146.031 132.293Z" fill="url(#paint2_linear)"/>
<path d="M204.699 491.62C203.461 487.787 200.761 484.821 197.452 482.528C194.504 480.485 191.041 479.348 187.632 478.236C169.492 472.321 149.669 466.41 131.763 473.002C132.513 479.89 131.821 491.62 131.821 491.62C131.821 491.62 196.05 491.565 204.699 491.62Z" fill="url(#paint3_linear)"/>
<path d="M28.2365 491.62C29.4734 487.787 32.1737 484.821 35.4833 482.528C38.4306 480.485 41.8944 479.348 45.3026 478.236C63.4436 472.321 83.2657 466.41 101.172 473.002C100.422 479.89 101.114 491.62 101.114 491.62C101.114 491.62 36.8842 491.565 28.2365 491.62Z" fill="url(#paint4_linear)"/>
<path d="M139.557 428.119C141.974 416.755 137.606 404.643 140.658 393.433C142.428 386.929 146.553 381.329 148.981 375.041C152.074 367.032 152.301 358.245 152.453 349.66C153.082 313.805 153.039 277.937 152.32 242.083C168.174 245.567 184.872 245.138 200.524 240.84C205.409 247.859 204.505 257.247 203.267 265.711C193.147 334.888 174.216 402.593 165.276 471.932C153.698 471.28 143.211 472.61 132.117 475.987C133.706 469.809 129.84 463.433 129.975 457.055C130.191 446.838 137.432 438.113 139.557 428.119Z" fill="#151A4F"/>
<path d="M124.637 390.966C124.047 380.975 129.263 371.693 133.919 362.835C142.229 347.028 149.252 330.542 154.89 313.594C157.635 305.347 160.153 296.794 165.422 289.884C169.952 283.944 171.921 282.833 176.13 276.662C178.268 273.527 183.159 261.333 184.672 257.853C187.824 250.606 192.423 249.223 195.574 241.976C177.87 245.692 159.627 244.965 142.449 239.289C141.191 238.873 136.835 236.357 136.835 236.357C136.835 236.357 135.063 240.32 134.328 241.943C100.771 315.992 79.7365 390.709 69.9621 471.427C80.1231 472.591 90.7195 477.179 100.878 475.987C111.329 460.374 111.942 446.674 118.384 423.021C120.128 416.618 124.911 395.624 124.637 390.966Z" fill="#23286B"/>
<path d="M177.809 139.461C171.523 139.404 165.239 139.006 158.996 138.27C159.001 130.286 159.151 122.303 159.446 114.325C164.464 114.977 169.482 115.629 174.501 116.281C176.026 116.479 177.643 116.664 179.042 116.025C178.543 123.831 178.133 131.644 177.809 139.461Z" fill="#F2A19C"/>
<path d="M179.518 118.108C175.863 121.415 170.26 121.455 165.501 120.171C157.207 117.933 149.663 111.716 147.515 103.392C145.366 95.0682 149.873 85.0756 158.095 82.585C160.072 81.9861 162.157 81.8141 164.224 81.8053C168.647 81.7858 173.073 82.502 177.266 83.9148C178.894 88.0723 184.835 102.29 184.835 104.372C184.836 113.166 182.168 115.709 179.518 118.108Z" fill="#FFBEB6"/>
<path opacity="0.86" d="M147.347 253.593C147.209 253.692 147.17 253.928 147.269 254.067C147.367 254.205 147.604 254.245 147.741 254.146C147.879 254.047 147.918 253.811 147.819 253.672C147.722 253.533 147.554 253.445 147.347 253.593ZM122.867 275.344C122.631 275.305 122.493 275.403 122.453 275.641C122.364 275.81 122.512 276.015 122.68 276.105C122.916 276.144 123.053 276.045 123.093 275.808C123.134 275.572 123.034 275.434 122.867 275.344ZM131.063 277.186C130.826 277.147 130.689 277.245 130.649 277.483C130.61 277.719 130.708 277.858 130.945 277.897C131.113 277.986 131.319 277.837 131.359 277.6C131.328 277.411 131.181 277.204 131.063 277.186ZM133.34 260.831C133.252 261 133.282 261.186 133.449 261.275C133.617 261.364 133.802 261.334 133.892 261.166C133.981 260.996 133.951 260.811 133.784 260.722C133.685 260.584 133.429 260.663 133.34 260.831ZM140.201 265.614C140.112 265.783 140.142 265.969 140.309 266.058C140.477 266.147 140.662 266.116 140.752 265.948C140.841 265.779 140.811 265.594 140.644 265.505C140.477 265.416 140.287 265.446 140.201 265.614ZM126.31 291.974C126.123 292.003 126.034 292.172 126.065 292.359C126.095 292.546 126.262 292.635 126.45 292.604C126.637 292.575 126.724 292.407 126.745 292.287C126.665 292.033 126.498 291.944 126.31 291.974ZM138.268 254.163C138.13 254.261 138.16 254.449 138.258 254.586C138.356 254.724 138.544 254.693 138.681 254.596C138.818 254.497 138.788 254.309 138.69 254.173C138.523 254.083 138.406 254.063 138.268 254.163ZM143.955 259.055C143.818 259.154 143.848 259.341 143.946 259.478C144.044 259.616 144.232 259.586 144.368 259.488C144.506 259.389 144.476 259.202 144.378 259.065C144.231 258.858 144.044 258.887 143.955 259.055ZM128.657 284.027C128.47 284.056 128.383 284.225 128.362 284.344C128.392 284.531 128.49 284.668 128.678 284.639C128.865 284.61 129.002 284.511 128.973 284.322C128.991 284.204 128.893 284.066 128.657 284.027ZM156.429 253.753C156.291 253.852 156.205 254.02 156.301 254.158C156.4 254.296 156.568 254.385 156.704 254.286C156.842 254.187 156.93 254.019 156.832 253.881C156.734 253.745 156.565 253.656 156.429 253.753ZM134.471 268.683C134.303 268.594 134.097 268.743 134.076 268.861C133.988 269.03 134.086 269.167 134.253 269.256C134.421 269.345 134.559 269.245 134.648 269.078C134.737 268.91 134.589 268.703 134.471 268.683ZM141.555 271.009C141.387 270.92 141.249 271.019 141.16 271.186C141.071 271.355 141.17 271.492 141.337 271.581C141.505 271.67 141.643 271.57 141.731 271.403C141.821 271.235 141.723 271.098 141.555 271.009ZM152.617 253.673C152.547 253.723 152.578 253.91 152.627 253.979C152.676 254.048 152.863 254.018 152.932 253.968C153.001 253.919 152.971 253.732 152.922 253.663C152.823 253.524 152.755 253.574 152.617 253.673ZM145.97 273.685C145.851 273.665 145.833 273.783 145.813 273.903C145.794 274.022 145.962 274.11 146.03 274.06C146.149 274.08 146.237 273.911 146.187 273.842C146.206 273.725 146.087 273.704 145.97 273.685ZM162.677 249.371C162.608 249.421 162.52 249.589 162.57 249.657C162.62 249.727 162.787 249.815 162.856 249.765C162.925 249.715 163.013 249.547 162.963 249.479C162.864 249.342 162.746 249.322 162.677 249.371ZM130.417 252.805C130.25 252.716 130.044 252.864 129.955 253.032C129.866 253.201 130.013 253.407 130.181 253.496C130.349 253.585 130.555 253.437 130.644 253.269C130.733 253.1 130.585 252.893 130.417 252.805ZM138.663 255.444C138.495 255.355 138.289 255.503 138.2 255.671C138.111 255.84 138.259 256.046 138.427 256.136C138.595 256.224 138.801 256.076 138.889 255.908C138.929 255.67 138.831 255.532 138.663 255.444ZM146.86 258.013C146.692 257.925 146.486 258.073 146.397 258.241C146.308 258.41 146.456 258.615 146.623 258.705C146.791 258.794 146.997 258.646 147.086 258.478C147.175 258.31 147.028 258.102 146.86 258.013ZM155.459 250.066C155.37 250.235 155.331 250.47 155.499 250.558C155.667 250.647 155.902 250.686 155.991 250.518C156.08 250.349 156.119 250.114 155.951 250.026C155.785 249.937 155.548 249.898 155.459 250.066ZM132.198 270.315C132.011 270.344 131.854 270.562 131.884 270.75C131.913 270.937 132.13 271.095 132.317 271.064C132.505 271.035 132.712 270.886 132.681 270.699C132.601 270.443 132.434 270.355 132.198 270.315ZM140.824 269.55C140.637 269.579 140.43 269.728 140.51 269.985C140.539 270.172 140.707 270.261 140.875 270.349C141.063 270.32 141.27 270.171 141.239 269.984C141.229 269.677 141.061 269.589 140.824 269.55ZM161.416 248.19C161.327 248.359 161.288 248.594 161.456 248.682C161.624 248.771 161.859 248.81 161.948 248.642C162.086 248.544 162.125 248.307 161.908 248.15C161.808 248.012 161.573 247.973 161.416 248.19ZM130.272 264.705C130.085 264.735 129.878 264.883 129.908 265.071C129.938 265.258 130.086 265.466 130.273 265.435C130.46 265.406 130.597 265.307 130.637 265.07C130.607 264.882 130.459 264.675 130.272 264.705ZM138.889 264.362C138.702 264.392 138.495 264.54 138.525 264.728C138.555 264.916 138.654 265.054 138.89 265.092C139.078 265.063 139.285 264.915 139.255 264.727C139.175 264.471 139.076 264.333 138.889 264.362ZM147.456 263.954C147.269 263.983 147.062 264.132 147.092 264.32C147.121 264.507 147.27 264.714 147.457 264.684C147.645 264.655 147.852 264.506 147.821 264.319C147.861 264.081 147.643 263.923 147.456 263.954ZM145.768 250.655C145.6 250.566 145.394 250.715 145.306 250.883C145.217 251.052 145.364 251.257 145.532 251.347C145.7 251.436 145.906 251.287 145.995 251.119C146.035 250.882 145.936 250.744 145.768 250.655ZM153.906 253.58C153.738 253.492 153.533 253.64 153.444 253.808C153.355 253.977 153.502 254.182 153.67 254.272C153.838 254.361 154.044 254.213 154.133 254.045C154.173 253.807 154.075 253.669 153.906 253.58ZM144.928 267.125C144.74 267.154 144.721 267.273 144.751 267.46C144.78 267.647 144.899 267.667 145.086 267.638C145.273 267.608 145.293 267.489 145.263 267.303C145.166 267.164 145.116 267.094 144.928 267.125ZM147.652 253.582C147.533 253.563 147.396 253.662 147.378 253.78C147.359 253.899 147.457 254.037 147.575 254.054C147.694 254.074 147.832 253.975 147.85 253.857C147.869 253.74 147.771 253.603 147.652 253.582ZM154.056 254.517C153.937 254.498 153.799 254.597 153.711 254.765C153.692 254.884 153.79 255.022 153.908 255.039C154.027 255.059 154.165 254.96 154.183 254.842C154.341 254.626 154.242 254.488 154.056 254.517Z" fill="white"/>
<path d="M187.084 101.461C185.395 101.461 183.285 99.2695 181.954 96.1302C180.38 92.4251 180.522 89.0649 182.284 88.3155C182.508 88.2198 182.75 88.1719 183.003 88.1719C184.692 88.1719 186.802 90.3635 188.133 93.5018C188.845 95.1785 189.23 96.8845 189.215 98.3061C189.199 99.8675 188.698 100.936 187.802 101.317C187.579 101.413 187.338 101.461 187.084 101.461ZM183.003 89.1499C182.881 89.1499 182.768 89.1714 182.665 89.2154C181.628 89.657 181.45 92.4485 182.851 95.7491C184.249 99.0428 186.396 100.852 187.421 100.419C187.929 100.202 188.227 99.4288 188.239 98.2964C188.252 97.0066 187.895 95.4404 187.235 93.8839C185.977 90.9214 184.095 89.1499 183.003 89.1499Z" fill="#E94A47"/>
<path d="M178.952 88.6918C179.743 90.9967 180.865 93.0945 182.239 94.8347C182.859 95.6203 183.528 96.3326 184.15 97.1142C184.613 97.6966 185.071 98.3707 185.179 99.212C185.332 100.4 184.743 101.536 184.065 102.324C182.683 103.927 180.788 104.699 178.978 104.396C178.605 100.998 178.233 97.6008 177.86 94.2025C177.652 92.306 177.477 90.2024 178.284 88.6234C178.506 88.6459 178.73 88.6693 178.952 88.6918Z" fill="#FFBEB6"/>
<path d="M177.123 93.9992C177.054 93.9992 176.983 93.9846 176.917 93.9533C176.673 93.839 176.567 93.5478 176.682 93.3035C177.169 92.2639 177.992 91.5741 179 91.3631C179.932 91.1657 180.916 91.4246 181.63 92.0509C181.833 92.2288 181.854 92.5375 181.675 92.7407C181.498 92.944 181.189 92.9635 180.986 92.7857C180.502 92.3607 179.834 92.1867 179.2 92.3196C178.499 92.4662 177.919 92.9635 177.565 93.7178C177.482 93.8947 177.307 93.9992 177.123 93.9992Z" fill="#E94A47"/>
<path d="M172.778 105.764C168.886 105.764 165.72 102.596 165.72 98.701C165.72 94.8064 168.886 91.6377 172.778 91.6377C176.669 91.6377 179.835 94.8064 179.835 98.701C179.835 102.596 176.669 105.764 172.778 105.764ZM172.778 92.6148C169.424 92.6148 166.696 95.3447 166.696 98.701C166.696 102.057 169.424 104.787 172.778 104.787C176.131 104.787 178.859 102.057 178.859 98.701C178.859 95.3447 176.131 92.6148 172.778 92.6148Z" fill="#E94A47"/>
<path d="M155.978 114.644C152.721 110.909 149.239 106.408 150.169 101.538C150.456 100.037 151.262 98.5319 152.645 97.8841C154.958 96.8015 157.558 98.486 159.552 100.083C157.718 97.2959 157.603 93.4697 159.264 90.5765C160.926 87.6834 164.289 85.8592 167.618 86.0439C171.727 86.2715 175.333 89.2497 179.447 89.3366C178.748 84.6877 181.947 83.2573 183.453 78.8037C181.501 75.1397 172.621 74.3444 171.494 74.4069C162.707 74.8954 159.15 76.8721 151.236 77.8267C147.169 78.3172 144.592 77.5169 140.741 76.1168C139.294 85.6149 142.747 94.9236 146.033 103.951C146.917 106.381 147.934 107.791 149.528 109.826C151.122 111.862 155.141 116.748 155.978 114.644Z" fill="url(#paint5_linear)"/>
<path d="M114.442 135.786C103.343 142.869 98.1108 156.034 90.7273 166.94C85.3353 174.904 78.5679 181.898 73.5499 190.103C71.7369 193.066 70.1193 196.352 70.2315 199.825C70.4375 206.148 77.5057 211.247 83.5654 209.441C87.3513 208.312 90.1757 205.133 92.2571 201.773C94.3385 198.413 95.9044 194.722 98.3275 191.599C101.392 187.65 105.644 184.835 109.473 181.623C118.232 174.272 124.973 164.539 128.777 153.751C130.463 148.971 131.56 143.612 129.675 138.906C128.827 136.785 127.518 133.99 125.447 133.032C121.98 131.428 117.661 133.731 114.442 135.786Z" fill="url(#paint6_linear)"/>
<path d="M216.118 180.325C207.741 175.129 203.012 165.71 199.603 156.455C196.95 149.253 195.076 140.457 199.893 134.485C201.157 132.92 202.889 131.65 204.87 131.314C209.104 130.596 212.764 134.099 215.626 137.301C230.052 153.441 244.514 169.624 257.023 187.295C257.95 188.605 258.893 189.986 259.128 191.575C259.353 193.087 258.905 194.626 258.251 196.007C256.037 200.684 250.602 204.156 245.66 202.63C241.783 201.433 239.342 197.74 236.735 194.628C233.263 190.489 228.988 187.025 224.218 184.489C221.536 183.063 218.699 181.926 216.118 180.325Z" fill="#D6D7D8"/>
<path d="M71.4929 201.56C72.3735 199.766 74.7204 198.888 76.8995 198.211C80.786 197.004 84.8873 195.934 89.1145 196.274C92.9542 196.583 96.5048 199.811 99.2501 202.405C107.787 210.471 128.36 227.749 132.28 230.577C127.74 232.496 124.477 235.204 122.121 238.968C111.137 228.154 91.1149 227.049 79.2796 216.873C75.7113 213.805 73.0608 210.004 71.6637 205.951C71.1629 204.497 70.829 202.912 71.4929 201.56Z" fill="url(#paint7_linear)"/>
<path d="M259.942 199.425C260.322 197.21 260.611 194.718 259.285 192.904C257.768 190.832 254.77 190.542 252.241 190.978C246.372 191.988 241.319 195.799 237.385 200.272C233.45 204.745 230.421 209.929 226.927 214.755C222.459 220.927 218.524 227.832 212.659 232.694C217.66 234.896 220.686 237.277 223.674 241.855C232.592 231.279 247.988 227.047 255.032 215.138C257.842 210.388 259.008 204.865 259.942 199.425Z" fill="url(#paint8_linear)"/>
<path d="M155.141 115.201C155.044 115.201 154.946 115.171 154.86 115.112C154.205 114.65 153.624 114.258 153.088 113.896C150.782 112.34 149.258 111.312 146.22 107.699C138.357 98.3442 135.782 87.9941 138.346 76.0561C138.402 75.7923 138.661 75.6213 138.926 75.6809C139.189 75.7376 139.357 75.9975 139.3 76.2613C136.804 87.8846 139.312 97.9612 146.968 107.07C149.917 110.578 151.316 111.522 153.634 113.085C154.175 113.451 154.761 113.846 155.423 114.313C155.643 114.468 155.696 114.773 155.541 114.994C155.446 115.128 155.295 115.201 155.141 115.201Z" fill="#428DFC"/>
<path d="M159.127 169.184H133.745V182.212H159.127V169.184Z" fill="#EEEEEE"/>
<path d="M204.036 169.184H178.653V182.212H204.036V169.184Z" fill="#EEEEEE"/>
<path d="M168.755 158.205C170.903 156.879 173.362 158.245 175.909 157.539C176.639 173.287 189.346 189.249 186.868 204.818C186.377 207.907 185.305 210.939 185.418 214.063C185.571 218.281 187.838 222.078 189.319 226.029C194.172 238.969 189.823 254.8 179.043 263.441C176.006 256.022 171.35 249.271 165.496 243.798C170.693 235.051 171.594 223.877 167.865 214.409C167.281 212.927 166.578 211.411 166.695 209.823C166.874 207.385 168.884 205.547 170.067 203.409C173.823 196.614 168.894 188.565 166.695 181.116C164.473 173.584 165.224 165.217 168.755 158.205Z" fill="#D62929"/>
<path d="M176.441 156.441C176.33 156.899 176.215 158.026 175.776 158.197C174.881 158.544 170.77 158.593 168.532 158.725C166.03 152.793 164.385 147.338 163.216 141.072C168.772 142.238 173.983 142.408 179.464 140.929C178.311 146.225 177.716 151.173 176.441 156.441Z" fill="#E94A47"/>
<path d="M178.542 124.187C183.353 126.921 189.715 130.251 195.087 131.567C192.806 139.421 190.845 145.568 188.565 153.422C182.99 148.5 174.328 142.642 170.245 139.478C173.234 134.477 174.369 133.671 177.357 128.669C177.788 127.96 178.411 125.637 178.542 124.187Z" fill="#EEEEEE"/>
<path d="M159.048 125.241C154.238 127.975 148.221 130.911 142.848 132.227C145.13 140.081 149.643 145.567 151.925 153.421C157.499 148.499 166.161 142.641 170.244 139.477C165.88 135.963 163.354 134.592 160.365 129.59C159.935 128.883 159.18 126.691 159.048 125.241Z" fill="#EEEEEE"/>
<path d="M170.117 72.9276C170.719 71.5013 165.8 66.8107 164.693 65.3842C160.498 59.8907 156.843 53.5141 149.691 51.7751C148.053 51.4112 143.737 51.4578 140.417 51.6321C137.677 51.7309 135.092 53.0813 133.356 55.1969C129.084 60.505 120.492 71.0786 114.029 79.2911C110.902 83.2343 111.328 88.9256 115.011 92.3314C115.907 93.1392 116.761 93.9942 117.661 94.8917C120.033 97.2866 122.636 99.8043 125.172 102.775C124.909 98.5153 123.942 94.562 123.897 90.1554C123.91 87.7703 123.58 87.4727 125.164 85.9049C126.276 84.7668 128.814 83.3738 130.01 82.1413C132.505 84.3048 134.557 89.2359 136.408 92.018C146.541 83.433 156.784 77.0017 169.441 72.9181C168.979 72.6724 168.483 72.6534 167.954 72.8612" fill="#E94A47"/>
<path d="M128.862 104.561C126.864 106.778 123.449 106.958 121.235 104.962C119.021 102.966 118.847 99.5509 120.845 97.334C122.844 95.1171 126.258 94.9378 128.472 96.9336C130.686 98.9294 130.861 102.344 128.862 104.561Z" fill="#EEEEEE"/>
<path d="M135.862 97.1756C137.21 98.9044 139.571 99.3204 141.499 98.3193C142.988 97.5214 144.562 96.6289 145.521 96.0387C152.361 91.6756 158.466 86.1363 165.112 81.5134C167.982 79.5632 169.4 78.2741 171.882 76.6591C172.36 76.3191 172.969 75.9272 173.532 75.4928C175.484 74.0856 175.928 71.318 174.523 69.3672C172.195 66.0702 169.443 62.3906 167.035 59.2777C165.588 57.3742 162.868 56.977 160.916 58.3842C155.796 62.0722 151.019 67.1818 146.177 71.0351C141.118 75.0348 134.795 78.0661 129.694 82.113C127.793 83.6525 127.482 86.3681 128.929 88.2717C131.05 91.0397 133.888 94.6249 135.862 97.1756Z" fill="#EEEEEE"/>
<path opacity="0.51" d="M137.629 74.543C137.719 74.5383 137.86 74.6659 137.865 74.7556C137.87 74.8453 137.784 74.9398 137.652 74.9917C137.562 74.9964 137.421 74.8689 137.416 74.7792C137.454 74.6422 137.54 74.5477 137.629 74.543ZM133.102 64.2982C133.234 64.2462 133.328 64.3313 133.38 64.4635C133.432 64.5958 133.347 64.6902 133.214 64.7421C133.082 64.7941 132.988 64.7091 132.936 64.5768C132.974 64.4398 133.012 64.3029 133.102 64.2982ZM128.202 66.13C128.334 66.0781 128.428 66.1631 128.48 66.2954C128.532 66.4276 128.494 66.5646 128.404 66.5693C128.272 66.6212 128.178 66.5362 128.126 66.4039C128.032 66.3189 128.07 66.1819 128.202 66.13ZM136.989 54.1064C137.164 54.0073 137.438 54.0829 137.494 54.3049C137.593 54.4796 137.517 54.7536 137.342 54.8527C137.12 54.9094 136.894 54.8763 136.79 54.6118C136.691 54.437 136.767 54.1631 136.989 54.1064ZM145.174 66.3638C145.4 66.3969 145.589 66.567 145.598 66.7465C145.565 66.9732 145.394 67.162 145.215 67.1715C144.988 67.1384 144.757 67.0155 144.79 66.7888C144.824 66.5621 144.994 66.3732 145.174 66.3638ZM135.204 66.7072C135.384 66.6978 135.615 66.8206 135.629 67.0898C135.685 67.3118 135.472 67.5479 135.245 67.5148C134.976 67.529 134.83 67.3117 134.821 67.1322C134.807 66.863 134.978 66.6741 135.204 66.7072ZM125.188 67.0081C125.414 67.0412 125.603 67.2112 125.612 67.3907C125.621 67.5702 125.498 67.8016 125.229 67.8157C124.96 67.8298 124.771 67.6598 124.804 67.4331C124.838 67.2064 125.008 67.0175 125.188 67.0081ZM141.672 58.5845C141.851 58.5751 142.082 58.6979 142.049 58.9246C142.058 59.1041 141.978 59.2883 141.756 59.3449C141.534 59.4016 141.345 59.2315 141.336 59.0521C141.322 58.7828 141.492 58.5939 141.672 58.5845ZM132.82 59.679C133.042 59.6224 133.231 59.7924 133.24 59.9719C133.249 60.1514 133.126 60.3828 132.947 60.3922C132.947 60.3922 132.947 60.3922 132.904 60.4394C132.682 60.4961 132.494 60.326 132.484 60.1466C132.428 59.9246 132.598 59.7357 132.82 59.679ZM144.925 74.6999C145.152 74.733 145.251 74.9078 145.17 75.092C145.137 75.3187 144.915 75.3753 144.735 75.3847C144.551 75.3044 144.452 75.1296 144.486 74.9029C144.566 74.7188 144.741 74.6196 144.925 74.6999ZM136.348 72.3608C136.575 72.3939 136.631 72.6159 136.598 72.8426C136.517 73.0268 136.342 73.1259 136.116 73.0929C135.931 73.0125 135.833 72.8378 135.823 72.6583C135.947 72.4269 136.121 72.3277 136.348 72.3608ZM136.388 61.6962C136.614 61.7293 136.718 61.9938 136.684 62.2205C136.651 62.4472 136.344 62.5983 136.16 62.518C135.933 62.4849 135.782 62.1779 135.863 61.9937C135.986 61.7623 136.203 61.6159 136.388 61.6962ZM138.073 55.9391C138.299 55.9722 138.45 56.2792 138.369 56.4634C138.289 56.6476 138.118 56.8365 137.845 56.7609C137.618 56.7278 137.472 56.5105 137.505 56.2838C137.581 56.0099 137.799 55.8635 138.073 55.9391C138.025 55.8966 138.073 55.9391 138.073 55.9391Z" fill="white"/>
<path d="M281.836 483.046H257.38L232.374 241.481H306.843L281.836 483.046Z" fill="url(#paint9_linear)"/>
<path d="M326.441 490.923H212.776C212.776 480.772 220.966 472.542 231.067 472.542H308.15C318.252 472.542 326.441 480.772 326.441 490.923Z" fill="#EEEEEE"/>
<path d="M272.504 171.426H267.813C265.153 171.426 262.976 169.239 262.976 166.566V155.253C262.976 152.58 265.153 150.392 267.813 150.392H272.504C275.164 150.392 277.341 152.58 277.341 155.253V166.566C277.341 169.239 275.166 171.426 272.504 171.426Z" fill="#23286B"/>
<path d="M271.944 161.528H267.964V220.918H271.944V161.528Z" fill="#23286B"/>
<path d="M244.58 171.458L240.31 169.505C237.889 168.397 236.809 165.501 237.912 163.068L242.575 152.772C243.678 150.339 246.561 149.253 248.982 150.361L253.251 152.314C255.672 153.422 256.752 156.319 255.65 158.752L250.985 169.048C249.884 171.481 247.001 172.565 244.58 171.458Z" fill="#23286B"/>
<path d="M238.117 213.851C237.018 213.851 236.127 212.957 236.127 211.852V187.559C236.127 181.284 237.523 174.962 240.163 169.276L244.836 159.213C245.302 158.212 246.485 157.78 247.481 158.247C248.478 158.715 248.907 159.904 248.443 160.905L243.77 170.968C241.374 176.128 240.107 181.865 240.107 187.559V211.852C240.107 212.956 239.216 213.851 238.117 213.851Z" fill="#23286B"/>
<path d="M294.638 171.458L298.907 169.505C301.328 168.397 302.408 165.501 301.306 163.068L296.642 152.772C295.54 150.339 292.657 149.253 290.236 150.361L285.966 152.313C283.545 153.421 282.465 156.318 283.568 158.751L288.231 169.047C289.333 171.481 292.216 172.565 294.638 171.458Z" fill="#23286B"/>
<path d="M301.1 213.851C300 213.851 299.11 212.957 299.11 211.852V187.559C299.11 181.865 297.843 176.127 295.447 170.968L290.774 160.905C290.31 159.905 290.74 158.715 291.736 158.247C292.732 157.782 293.917 158.214 294.382 159.213L299.054 169.276C301.694 174.962 303.09 181.284 303.09 187.559V211.852C303.09 212.956 302.2 213.851 301.1 213.851Z" fill="#23286B"/>
<path d="M318.014 209.175H221.203V258.444H318.014V209.175Z" fill="#EEEEEE"/>
<path d="M270.786 246.883C289.338 246.883 304.377 241.059 304.377 233.874C304.377 226.69 289.338 220.865 270.786 220.865C252.234 220.865 237.195 226.69 237.195 233.874C237.195 241.059 252.234 246.883 270.786 246.883Z" fill="#F8F8F8"/>
<path d="M310.872 207.457C310.487 207.457 310.175 207.144 310.175 206.759V81.588C310.175 81.203 310.487 80.8906 310.872 80.8906C311.257 80.8906 311.569 81.203 311.569 81.588V206.759C311.569 207.144 311.257 207.457 310.872 207.457Z" fill="#151A4F"/>
<path d="M311.523 81.9366L294.015 160.719L322.606 187.583L311.523 81.9366Z" fill="#E94A47"/>
<path d="M310.872 81.9366C312.22 81.9366 313.312 80.8439 313.312 79.496C313.312 78.148 312.22 77.0553 310.872 77.0553C309.524 77.0553 308.431 78.148 308.431 79.496C308.431 80.8439 309.524 81.9366 310.872 81.9366Z" fill="#D6D7D8"/>
<path d="M314.524 209.549C314.432 207.608 312.835 206.062 310.872 206.062C308.909 206.062 307.311 207.608 307.219 209.549H314.524Z" fill="#D6D7D8"/>
<path opacity="0.51" d="M302.396 161.672C302.374 161.635 302.326 161.623 302.289 161.645C302.253 161.667 302.24 161.716 302.262 161.752C302.284 161.789 302.332 161.801 302.37 161.779C302.406 161.756 302.418 161.709 302.396 161.672ZM300.767 162.671C300.743 162.634 300.694 162.622 300.655 162.642C300.619 162.667 300.609 162.715 300.633 162.752C300.652 162.788 300.696 162.802 300.732 162.783C300.735 162.782 300.737 162.78 300.74 162.778C300.777 162.756 300.789 162.708 300.767 162.671ZM295.902 157.004C295.913 156.961 295.887 156.917 295.844 156.907C295.805 156.895 295.765 156.918 295.754 156.956C295.752 156.959 295.752 156.963 295.752 156.967C295.741 157.008 295.764 157.05 295.804 157.061C295.847 157.073 295.891 157.047 295.902 157.004ZM302.809 165.789C302.802 165.747 302.764 165.718 302.722 165.724C302.681 165.731 302.652 165.769 302.658 165.812C302.663 165.853 302.703 165.882 302.745 165.876C302.784 165.873 302.814 165.837 302.81 165.797C302.81 165.793 302.81 165.791 302.809 165.789ZM299.038 159.579C299.061 159.542 299.053 159.494 299.019 159.466C298.983 159.44 298.933 159.449 298.906 159.485C298.88 159.522 298.888 159.573 298.925 159.599C298.962 159.622 299.011 159.613 299.038 159.579ZM297.913 161.126C297.938 161.09 297.928 161.041 297.892 161.017C297.86 160.99 297.812 160.994 297.785 161.026C297.784 161.028 297.782 161.03 297.781 161.031C297.756 161.068 297.764 161.117 297.8 161.145C297.837 161.168 297.886 161.16 297.913 161.126ZM311.107 167.382C311.1 167.3 311.029 167.239 310.948 167.246C310.946 167.246 310.944 167.246 310.942 167.246C310.862 167.253 310.802 167.324 310.809 167.405C310.809 167.405 310.809 167.405 310.809 167.406C310.816 167.487 310.887 167.548 310.968 167.542C310.97 167.542 310.972 167.541 310.973 167.541C311.054 167.534 311.114 167.463 311.107 167.383C311.108 167.382 311.108 167.382 311.108 167.382L311.107 167.382ZM307.501 167.709C307.494 167.626 307.422 167.564 307.338 167.571C307.255 167.578 307.194 167.651 307.2 167.734C307.2 167.734 307.2 167.736 307.201 167.737C307.208 167.818 307.279 167.878 307.359 167.871C307.359 167.871 307.36 167.87 307.36 167.87C307.443 167.862 307.505 167.791 307.501 167.709ZM307.622 153.656C307.674 153.591 307.665 153.497 307.601 153.444C307.542 153.391 307.451 153.396 307.398 153.455C307.395 153.457 307.394 153.459 307.392 153.461C307.34 153.526 307.35 153.62 307.413 153.673C307.476 153.725 307.569 153.718 307.622 153.656ZM302.972 159.22C303.025 159.158 303.017 159.066 302.954 159.012C302.954 159.012 302.952 159.01 302.95 159.009C302.891 158.956 302.8 158.961 302.747 159.02C302.745 159.022 302.743 159.024 302.741 159.026C302.691 159.092 302.698 159.186 302.76 159.243C302.825 159.293 302.919 159.284 302.972 159.22ZM300.649 162.002C300.702 161.938 300.693 161.843 300.629 161.79C300.564 161.737 300.47 161.747 300.417 161.811C300.364 161.874 300.371 161.967 300.433 162.02C300.496 162.075 300.591 162.069 300.646 162.006C300.647 162.005 300.648 162.003 300.649 162.002ZM311.121 160.558C311.081 160.487 310.99 160.462 310.918 160.502C310.847 160.543 310.821 160.633 310.862 160.705C310.901 160.775 310.99 160.8 311.061 160.763C311.132 160.722 311.16 160.631 311.121 160.558ZM307.909 162.241C307.869 162.17 307.778 162.145 307.706 162.185C307.635 162.226 307.61 162.316 307.65 162.388C307.689 162.458 307.778 162.484 307.849 162.446C307.921 162.405 307.948 162.315 307.909 162.241ZM304.7 163.92C304.658 163.847 304.565 163.821 304.492 163.863C304.422 163.902 304.394 163.991 304.43 164.063C304.467 164.139 304.558 164.169 304.634 164.132C304.709 164.095 304.74 164.003 304.703 163.928C304.702 163.925 304.701 163.922 304.7 163.92ZM300.577 151.701C300.6 151.622 300.556 151.539 300.476 151.514C300.399 151.489 300.317 151.532 300.292 151.609C300.292 151.609 300.292 151.609 300.292 151.61C300.263 151.684 300.3 151.767 300.374 151.796C300.378 151.797 300.381 151.798 300.385 151.799C300.465 151.822 300.548 151.778 300.577 151.701ZM298.404 158.618C298.429 158.543 298.39 158.461 298.315 158.435C298.313 158.434 298.311 158.433 298.308 158.433C298.231 158.406 298.146 158.447 298.118 158.525C298.117 158.527 298.117 158.529 298.116 158.532C298.092 158.612 298.137 158.695 298.216 158.719C298.295 158.743 298.379 158.698 298.403 158.619C298.403 158.619 298.403 158.618 298.404 158.618ZM312.681 163.748C312.653 163.68 312.576 163.647 312.508 163.674C312.44 163.701 312.407 163.779 312.434 163.847C312.461 163.916 312.538 163.948 312.607 163.921C312.675 163.893 312.708 163.816 312.681 163.748ZM309.685 164.969C309.657 164.901 309.58 164.868 309.512 164.895C309.443 164.92 309.407 164.997 309.432 165.066C309.457 165.135 309.534 165.17 309.603 165.145C309.606 165.144 309.608 165.143 309.611 165.142C309.679 165.116 309.712 165.041 309.688 164.974C309.687 164.973 309.685 164.971 309.685 164.969ZM306.686 166.286C306.702 166.257 306.702 166.222 306.688 166.19C306.66 166.122 306.583 166.09 306.515 166.116C306.445 166.144 306.41 166.223 306.438 166.293L306.438 166.294C306.455 166.336 306.491 166.367 306.535 166.376L306.539 166.378C306.564 166.385 306.59 166.381 306.611 166.368C306.65 166.355 306.678 166.324 306.686 166.286ZM303.124 154.177C303.151 154.106 303.118 154.028 303.05 153.997C302.984 153.969 302.908 153.999 302.88 154.065C302.879 154.067 302.878 154.068 302.878 154.071C302.848 154.138 302.878 154.217 302.945 154.246C302.946 154.246 302.946 154.246 302.946 154.246C303.015 154.273 303.093 154.242 303.124 154.177ZM300.604 160.137C300.634 160.07 300.604 159.991 300.537 159.961C300.537 159.961 300.535 159.961 300.534 159.96C300.472 159.931 300.397 159.958 300.367 160.021C300.365 160.025 300.364 160.029 300.363 160.033C300.333 160.1 300.363 160.179 300.43 160.209C300.431 160.21 300.432 160.21 300.433 160.21C300.5 160.235 300.575 160.203 300.604 160.137ZM299.349 163.114C299.376 163.045 299.342 162.966 299.272 162.94C299.205 162.914 299.128 162.946 299.1 163.013C299.073 163.081 299.103 163.158 299.169 163.19C299.239 163.216 299.318 163.183 299.349 163.114ZM307.875 159.431C307.926 159.377 307.925 159.293 307.873 159.241C307.822 159.189 307.738 159.188 307.686 159.24C307.635 159.292 307.632 159.376 307.681 159.431C307.735 159.483 307.821 159.484 307.875 159.431ZM305.569 161.704C305.621 161.656 305.625 161.575 305.577 161.523C305.576 161.521 305.573 161.519 305.572 161.517C305.521 161.465 305.437 161.464 305.385 161.515C305.334 161.568 305.331 161.652 305.38 161.707C305.433 161.757 305.517 161.756 305.569 161.704ZM303.268 163.979C303.32 163.928 303.319 163.844 303.268 163.793C303.217 163.742 303.135 163.741 303.083 163.791C303.03 163.841 303.028 163.925 303.079 163.978C303.13 164.031 303.212 164.032 303.266 163.982C303.266 163.981 303.267 163.98 303.268 163.979ZM296.532 157.679C296.532 157.605 296.473 157.544 296.399 157.542C296.324 157.543 296.265 157.605 296.266 157.68C296.268 157.751 296.324 157.809 296.395 157.812C296.467 157.816 296.529 157.759 296.532 157.687C296.532 157.684 296.532 157.681 296.532 157.679ZM303.359 163.5C303.383 163.464 303.374 163.416 303.338 163.391C303.302 163.367 303.253 163.377 303.229 163.412C303.204 163.448 303.214 163.497 303.25 163.521C303.286 163.546 303.335 163.535 303.359 163.5ZM302.297 165.086C302.319 165.048 302.308 165 302.271 164.975C302.235 164.95 302.186 164.96 302.162 164.996C302.137 165.029 302.145 165.076 302.178 165.101C302.18 165.102 302.181 165.103 302.184 165.104C302.219 165.13 302.269 165.123 302.296 165.087C302.296 165.087 302.297 165.087 302.297 165.086ZM305.43 166.95C305.404 166.916 305.357 166.907 305.321 166.928C305.285 166.95 305.274 166.998 305.296 167.034C305.297 167.035 305.298 167.036 305.299 167.038C305.32 167.073 305.367 167.085 305.402 167.064C305.404 167.063 305.406 167.061 305.408 167.06C305.444 167.034 305.454 166.986 305.43 166.95ZM299.417 162.895C299.426 162.853 299.399 162.812 299.357 162.803C299.314 162.794 299.273 162.821 299.264 162.864C299.253 162.903 299.275 162.943 299.314 162.954C299.316 162.955 299.32 162.956 299.324 162.956C299.365 162.966 299.406 162.939 299.416 162.898C299.417 162.897 299.416 162.896 299.417 162.895ZM310.023 169.386C310.006 169.342 309.956 169.32 309.912 169.337C309.911 169.338 309.91 169.338 309.909 169.338C309.863 169.354 309.84 169.405 309.855 169.45C309.856 169.452 309.857 169.454 309.858 169.457C309.875 169.501 309.925 169.523 309.969 169.506C309.97 169.505 309.971 169.505 309.972 169.505C310.018 169.486 310.041 169.434 310.023 169.386ZM303.658 162.869C303.678 162.827 303.661 162.777 303.62 162.757C303.617 162.755 303.614 162.754 303.61 162.753C303.565 162.734 303.513 162.755 303.494 162.8C303.477 162.846 303.496 162.898 303.539 162.921C303.586 162.94 303.639 162.917 303.658 162.869C303.658 162.87 303.658 162.87 303.658 162.869ZM302.794 164.87C302.813 164.823 302.79 164.77 302.742 164.751H302.742C302.697 164.732 302.645 164.754 302.626 164.799C302.609 164.845 302.628 164.896 302.671 164.92C302.719 164.937 302.772 164.915 302.794 164.87ZM306.686 166.286C306.682 166.274 306.676 166.263 306.668 166.253C306.635 166.217 306.578 166.216 306.543 166.25C306.542 166.251 306.542 166.251 306.541 166.252C306.506 166.286 306.504 166.339 306.535 166.376L306.54 166.378C306.573 166.413 306.629 166.415 306.665 166.381C306.665 166.38 306.666 166.38 306.667 166.379C306.693 166.355 306.7 166.318 306.686 166.286ZM299.082 162.942C299.083 162.893 299.044 162.852 298.994 162.852C298.993 162.852 298.992 162.851 298.992 162.852C298.943 162.852 298.904 162.89 298.903 162.939C298.899 162.986 298.933 163.027 298.981 163.032C298.984 163.032 298.985 163.032 298.987 163.033C299.038 163.033 299.08 162.994 299.082 162.942ZM314.748 161.001C314.806 160.938 314.805 160.841 314.744 160.78C314.684 160.72 314.587 160.719 314.526 160.779C314.468 160.841 314.469 160.939 314.53 161C314.591 161.061 314.688 161.061 314.748 161.001ZM312.114 163.653C312.174 163.593 312.174 163.495 312.115 163.435C312.055 163.374 311.957 163.375 311.897 163.434C311.836 163.494 311.836 163.592 311.896 163.652C311.955 163.713 312.053 163.713 312.114 163.653ZM309.484 166.307C309.542 166.245 309.541 166.147 309.48 166.086C309.418 166.028 309.321 166.032 309.263 166.094C309.206 166.156 309.209 166.253 309.271 166.311C309.33 166.368 309.425 166.366 309.484 166.307ZM300.265 158.676C300.263 158.592 300.196 158.523 300.111 158.522C300.026 158.522 299.957 158.591 299.956 158.676C299.956 158.762 300.025 158.831 300.11 158.831C300.195 158.83 300.264 158.761 300.265 158.676ZM300.275 162.41C300.274 162.325 300.206 162.256 300.121 162.255C300.034 162.258 299.965 162.328 299.964 162.415C299.967 162.501 300.04 162.568 300.125 162.564C300.208 162.56 300.274 162.493 300.275 162.41ZM306.261 161.713C306.294 161.633 306.255 161.542 306.176 161.509H306.176C306.099 161.478 306.011 161.516 305.98 161.593C305.946 161.67 305.982 161.761 306.059 161.794C306.137 161.828 306.227 161.792 306.261 161.714L306.262 161.713L306.261 161.713ZM304.843 165.168C304.876 165.091 304.841 165.002 304.765 164.968C304.764 164.968 304.763 164.967 304.762 164.967C304.684 164.932 304.591 164.967 304.556 165.047C304.521 165.125 304.556 165.217 304.635 165.253C304.714 165.288 304.806 165.252 304.841 165.173C304.842 165.171 304.843 165.17 304.843 165.168ZM308.664 161.986C308.699 161.907 308.664 161.815 308.585 161.78C308.509 161.747 308.419 161.781 308.382 161.855C308.348 161.934 308.381 162.026 308.458 162.065C308.537 162.098 308.627 162.063 308.664 161.986ZM307.108 165.368C307.143 165.289 307.108 165.198 307.029 165.162C306.953 165.127 306.861 165.16 306.826 165.237C306.791 165.313 306.824 165.405 306.9 165.44C306.977 165.475 307.069 165.444 307.108 165.368ZM312.54 167.346C312.6 167.289 312.603 167.193 312.546 167.132C312.546 167.132 312.546 167.131 312.546 167.131C312.489 167.067 312.392 167.062 312.328 167.118C312.266 167.178 312.263 167.276 312.32 167.339C312.379 167.399 312.476 167.403 312.54 167.346ZM309.805 169.878C309.869 169.822 309.873 169.725 309.817 169.662C309.761 169.598 309.664 169.594 309.6 169.65C309.6 169.651 309.599 169.651 309.598 169.653C309.537 169.713 309.533 169.81 309.59 169.874C309.647 169.935 309.743 169.937 309.804 169.88C309.804 169.878 309.804 169.878 309.805 169.878ZM302.442 158.666C302.443 158.58 302.376 158.509 302.29 158.506C302.206 158.504 302.136 158.569 302.133 158.654C302.126 158.736 302.188 158.809 302.271 158.815C302.273 158.815 302.275 158.816 302.278 158.815C302.363 158.821 302.436 158.756 302.442 158.671C302.442 158.669 302.442 158.667 302.442 158.666ZM302.297 162.383C302.298 162.298 302.23 162.227 302.145 162.224C302.061 162.222 301.99 162.287 301.988 162.372C301.981 162.454 302.043 162.527 302.125 162.533C302.128 162.533 302.13 162.533 302.132 162.533C302.218 162.539 302.291 162.473 302.296 162.388C302.296 162.387 302.296 162.385 302.297 162.383ZM306.388 163.766C306.402 163.704 306.362 163.641 306.299 163.628C306.238 163.615 306.178 163.652 306.162 163.713C306.146 163.772 306.181 163.833 306.24 163.85C306.243 163.851 306.248 163.852 306.251 163.852C306.313 163.865 306.374 163.827 306.388 163.766ZM305.773 166.499C305.787 166.436 305.746 166.374 305.683 166.36C305.62 166.347 305.558 166.388 305.544 166.45C305.53 166.512 305.568 166.574 305.63 166.588C305.631 166.589 305.632 166.589 305.634 166.589C305.697 166.602 305.758 166.562 305.773 166.499ZM311.04 167.474C311.076 167.421 311.063 167.349 311.011 167.313C310.957 167.28 310.888 167.293 310.85 167.343C310.813 167.395 310.826 167.467 310.878 167.504C310.878 167.504 310.878 167.504 310.878 167.504C310.928 167.541 310.998 167.531 311.035 167.482C311.037 167.478 311.039 167.476 311.04 167.474ZM309.424 169.773C309.46 169.719 309.448 169.646 309.396 169.607C309.344 169.57 309.272 169.583 309.236 169.635C309.236 169.635 309.236 169.636 309.235 169.636C309.198 169.686 309.207 169.755 309.257 169.793C309.257 169.793 309.259 169.794 309.26 169.795C309.311 169.834 309.384 169.825 309.423 169.774C309.423 169.774 309.423 169.773 309.424 169.773Z" fill="white"/>
<path d="M249.95 468.008L248.806 467.395L250.711 463.8L249.625 460.236L248.327 462.683L247.182 462.071L249.088 458.475L248.001 454.91L246.703 457.358L245.558 456.746L247.464 453.151L246.557 450.176L245.26 452.624L244.115 452.011L246.021 448.416L244.754 444.261L243.456 446.708L242.311 446.096L244.217 442.501L244.116 442.169L237.091 444.311L237.14 444.472L240.951 446.511L240.343 447.657L237.677 446.231L238.944 450.387L242.754 452.426L242.146 453.573L239.48 452.146L240.388 455.121L244.198 457.16L243.59 458.308L240.924 456.881L242.011 460.446L245.821 462.486L245.214 463.632L242.548 462.206L243.634 465.771L247.445 467.81L246.837 468.957L244.171 467.53L245.311 471.268L252.335 469.126L251.248 465.56L249.95 468.008Z" fill="#A1C3FC"/>
<path d="M241.731 441.05L240.586 440.438L242.492 436.843L241.405 433.278L240.108 435.726L238.963 435.113L240.869 431.518L239.781 427.953L238.484 430.401L237.339 429.788L239.245 426.193L238.158 422.628L236.86 425.075L235.715 424.463L237.621 420.868L236.534 417.303L235.237 419.751L234.092 419.138L235.998 415.543L235.897 415.211L228.872 417.353L228.921 417.514L232.731 419.553L232.123 420.7L229.457 419.274L230.544 422.838L234.355 424.878L233.747 426.025L231.081 424.598L232.168 428.164L235.978 430.203L235.371 431.35L232.705 429.923L233.792 433.489L237.602 435.528L236.994 436.675L234.328 435.249L235.415 438.813L239.225 440.852L238.618 441.999L235.952 440.573L237.091 444.311L244.116 442.169L243.029 438.602L241.731 441.05Z" fill="#A1C3FC"/>
<path d="M244.259 447.577L243.873 446.377L247.698 445.274L249.387 442.131L246.783 442.882L246.397 441.682L250.222 440.579L251.912 437.435L249.307 438.186L248.921 436.986L252.746 435.883L254.436 432.739L251.831 433.49L251.446 432.29L255.27 431.187L256.96 428.043L254.356 428.794L253.97 427.595L257.794 426.491L257.951 426.199L251.514 422.801L251.438 422.942L252.723 426.937L251.503 427.288L250.604 424.494L248.914 427.638L250.199 431.632L248.979 431.984L248.08 429.19L246.39 432.334L247.675 436.328L246.455 436.68L245.556 433.885L243.865 437.03L245.151 441.024L243.93 441.376L243.031 438.582L241.341 441.725L242.627 445.719L241.406 446.071L240.507 443.277L238.735 446.573L245.173 449.971L246.863 446.826L244.259 447.577Z" fill="#A1C3FC"/>
<path d="M255.501 443.429C256.805 443.032 257.54 441.652 257.142 440.348C256.744 439.044 255.365 438.309 254.061 438.707C252.757 439.104 252.022 440.484 252.42 441.788C252.817 443.092 254.197 443.827 255.501 443.429Z" fill="#428DFC"/>
<path d="M233.005 475.451C234.309 475.053 235.044 473.674 234.646 472.369C234.248 471.065 232.869 470.331 231.565 470.728C230.261 471.126 229.526 472.505 229.924 473.809C230.321 475.113 231.701 475.848 233.005 475.451Z" fill="#428DFC"/>
<path d="M228.346 451.709C229.651 451.311 230.385 449.932 229.988 448.627C229.59 447.323 228.211 446.588 226.907 446.986C225.602 447.384 224.868 448.763 225.265 450.067C225.663 451.371 227.042 452.106 228.346 451.709Z" fill="#E94A47"/>
<path d="M264.881 465.731C266.186 465.334 266.92 463.954 266.523 462.65C266.125 461.346 264.746 460.611 263.442 461.009C262.137 461.406 261.403 462.786 261.8 464.09C262.198 465.394 263.577 466.129 264.881 465.731Z" fill="#23286B"/>
<path d="M241.464 445.684L240.256 446.072L239.162 442.277L236.005 440.61L236.75 443.195L235.541 443.584L234.447 439.788L231.291 438.122L232.035 440.707L230.826 441.095L229.733 437.299L226.575 435.633L227.32 438.218L226.112 438.606L225.018 434.81L221.861 433.144L222.606 435.729L221.397 436.118L220.303 432.322L220.009 432.167L216.563 438.579L216.705 438.653L220.729 437.359L221.079 438.57L218.263 439.476L221.419 441.142L225.444 439.848L225.793 441.059L222.977 441.964L226.135 443.631L230.159 442.337L230.508 443.548L227.693 444.453L230.849 446.119L234.874 444.825L235.223 446.036L232.407 446.942L235.563 448.608L239.588 447.314L239.937 448.525L237.121 449.43L240.431 451.178L243.878 444.766L240.719 443.099L241.464 445.684Z" fill="#A1C3FC"/>
<path d="M250.913 469.541L250.523 468.326L254.367 467.218L256.06 464.04L253.442 464.794L253.051 463.579L256.895 462.471L258.588 459.292L255.971 460.047L255.58 458.831L259.424 457.723L261.117 454.545L258.5 455.3L258.109 454.085L261.952 452.976L263.646 449.798L261.028 450.553L260.638 449.337L264.481 448.229L264.639 447.934L258.158 444.48L258.081 444.624L259.382 448.669L258.156 449.022L257.245 446.192L255.552 449.371L256.853 453.416L255.627 453.77L254.717 450.939L253.023 454.118L254.325 458.163L253.098 458.517L252.188 455.687L250.495 458.865L251.796 462.91L250.569 463.264L249.659 460.434L247.966 463.612L249.267 467.657L248.041 468.011L247.13 465.181L245.355 468.514L251.837 471.966L253.531 468.786L250.913 469.541Z" fill="#A1C3FC"/>
<path d="M248.203 467.829L246.988 468.22L245.88 464.376L242.702 462.683L243.456 465.301L242.241 465.692L241.133 461.848L237.954 460.154L238.709 462.772L237.494 463.163L236.385 459.319L233.207 457.626L233.962 460.243L232.747 460.634L231.639 456.79L228.46 455.097L229.214 457.714L227.999 458.106L226.891 454.261L226.595 454.104L223.143 460.586L223.286 460.662L227.33 459.361L227.684 460.587L224.854 461.498L228.033 463.19L232.078 461.889L232.432 463.116L229.601 464.026L232.78 465.719L236.825 464.418L237.178 465.645L234.349 466.555L237.527 468.248L241.572 466.947L241.926 468.174L239.096 469.084L242.274 470.777L246.319 469.475L246.673 470.702L243.843 471.613L247.176 473.387L250.628 466.906L247.448 465.212L248.203 467.829Z" fill="#A1C3FC"/>
<path d="M311.652 255.834L311.303 254.845L314.4 253.74L315.694 251.022L313.587 251.774L313.238 250.785L316.334 249.68L317.629 246.962L315.521 247.714L315.172 246.725L318.268 245.62L319.349 243.351L317.241 244.104L316.892 243.115L319.988 242.01L321.498 238.841L319.39 239.593L319.041 238.604L322.137 237.499L322.258 237.246L316.901 234.694L316.843 234.817L318.004 238.11L317.016 238.462L316.204 236.159L314.694 239.327L315.855 242.62L314.867 242.973L314.055 240.669L312.974 242.937L314.135 246.23L313.147 246.583L312.335 244.279L311.04 246.998L312.2 250.291L311.213 250.643L310.4 248.339L309.105 251.058L310.266 254.351L309.278 254.703L308.466 252.399L307.108 255.25L312.465 257.802L313.76 255.082L311.652 255.834Z" fill="#A1C3FC"/>
<path d="M321.445 235.279L321.097 234.29L324.193 233.185L325.488 230.467L323.38 231.219L323.031 230.23L326.127 229.125L327.422 226.406L325.314 227.159L324.965 226.17L328.062 225.064L329.357 222.346L327.249 223.098L326.9 222.109L329.996 221.004L331.291 218.286L329.183 219.038L328.834 218.048L331.93 216.944L332.051 216.691L326.694 214.139L326.636 214.261L327.797 217.554L326.809 217.907L325.997 215.603L324.702 218.321L325.862 221.615L324.875 221.967L324.063 219.663L322.767 222.382L323.928 225.675L322.94 226.028L322.128 223.724L320.833 226.442L321.993 229.735L321.006 230.088L320.193 227.784L318.898 230.503L320.059 233.795L319.072 234.148L318.259 231.844L316.901 234.695L322.258 237.246L323.553 234.527L321.445 235.279Z" fill="#A1C3FC"/>
<path d="M319.395 240.549L319.819 239.623L322.701 241.05L325.422 240.096L323.46 239.125L323.884 238.199L326.766 239.626L329.487 238.673L327.525 237.701L327.948 236.775L330.83 238.202L333.552 237.248L331.589 236.277L332.013 235.351L334.895 236.778L337.617 235.824L335.655 234.853L336.078 233.927L338.96 235.353L339.213 235.264L337.227 229.729L337.104 229.772L335.693 232.855L334.774 232.399L335.761 230.243L333.039 231.196L331.629 234.279L330.709 233.824L331.696 231.667L328.975 232.621L327.564 235.703L326.645 235.248L327.632 233.091L324.91 234.045L323.499 237.127L322.579 236.672L323.566 234.516L320.845 235.469L319.435 238.551L318.515 238.096L319.502 235.94L316.649 236.939L318.635 242.475L321.357 241.521L319.395 240.549Z" fill="#A1C3FC"/>
<path d="M328.36 244.203C329.354 244.677 330.544 244.255 331.018 243.261C331.492 242.266 331.07 241.076 330.075 240.603C329.081 240.129 327.891 240.551 327.417 241.545C326.943 242.54 327.365 243.73 328.36 244.203Z" fill="#428DFC"/>
<path d="M297.49 251.036C298.485 251.509 299.675 251.087 300.148 250.093C300.622 249.099 300.2 247.908 299.206 247.435C298.211 246.961 297.021 247.383 296.547 248.377C296.074 249.372 296.496 250.562 297.49 251.036Z" fill="#428DFC"/>
<path d="M307.654 234.339C308.648 234.813 309.839 234.391 310.312 233.396C310.786 232.402 310.364 231.212 309.37 230.738C308.375 230.264 307.185 230.686 306.711 231.681C306.238 232.675 306.66 233.865 307.654 234.339Z" fill="#E94A47"/>
<path d="M321.797 262.616C322.791 263.09 323.981 262.668 324.455 261.673C324.929 260.679 324.507 259.489 323.512 259.015C322.518 258.541 321.328 258.963 320.854 259.958C320.38 260.952 320.802 262.142 321.797 262.616Z" fill="#23286B"/>
<path d="M318.761 237.897L317.828 237.469L319.245 234.61L318.271 231.896L317.306 233.843L316.373 233.416L317.79 230.556L316.816 227.842L315.851 229.789L314.918 229.362L316.335 226.502L315.361 223.787L314.396 225.735L313.464 225.307L314.88 222.448L313.906 219.734L312.941 221.681L312.008 221.253L313.425 218.394L313.335 218.141L307.784 220.086L307.828 220.208L310.934 221.63L310.482 222.543L308.309 221.548L309.283 224.262L312.389 225.684L311.936 226.597L309.764 225.602L310.738 228.316L313.843 229.738L313.392 230.651L311.219 229.656L312.193 232.37L315.299 233.792L314.846 234.705L312.674 233.71L313.648 236.424L316.753 237.846L316.301 238.758L314.128 237.764L315.15 240.609L320.7 238.665L319.725 235.949L318.761 237.897Z" fill="#A1C3FC"/>
<path d="M311.391 257.274L311.82 256.336L314.716 257.771L317.458 256.798L315.486 255.822L315.915 254.884L318.812 256.318L321.554 255.346L319.581 254.369L320.011 253.431L322.908 254.866L325.65 253.893L323.677 252.917L324.107 251.979L327.003 253.413L329.745 252.441L327.773 251.464L328.202 250.527L331.098 251.961L331.354 251.871L329.371 246.279L329.247 246.322L327.818 249.444L326.894 248.986L327.894 246.802L325.152 247.775L323.723 250.896L322.798 250.439L323.798 248.255L321.056 249.227L319.627 252.348L318.703 251.891L319.703 249.707L316.96 250.679L315.532 253.801L314.607 253.343L315.607 251.16L312.865 252.132L311.436 255.253L310.512 254.796L311.512 252.612L308.636 253.632L310.62 259.223L313.363 258.251L311.391 257.274Z" fill="#A1C3FC"/>
<path d="M310.707 254.776L309.77 254.347L311.204 251.45L310.232 248.708L309.255 250.681L308.317 250.251L309.752 247.355L308.78 244.612L307.803 246.585L306.865 246.156L308.299 243.259L307.327 240.517L306.35 242.489L305.413 242.06L306.847 239.164L305.874 236.421L304.898 238.393L303.96 237.964L305.395 235.068L305.304 234.813L299.712 236.796L299.756 236.919L302.877 238.348L302.42 239.272L300.236 238.272L301.209 241.015L304.33 242.444L303.872 243.368L301.688 242.368L302.661 245.11L305.782 246.539L305.324 247.463L303.141 246.464L304.113 249.206L307.235 250.635L306.777 251.559L304.593 250.56L305.566 253.301L308.687 254.73L308.229 255.654L306.045 254.655L307.065 257.53L312.657 255.547L311.684 252.804L310.707 254.776Z" fill="#A1C3FC"/>
<defs>
<linearGradient id="paint0_linear" x1="31.6107" y1="224.372" x2="178.372" y2="224.372" gradientUnits="userSpaceOnUse">
<stop stop-color="#E8F1FE"/>
<stop offset="1" stop-color="#C1D7F8"/>
</linearGradient>
<linearGradient id="paint1_linear" x1="196.518" y1="261.513" x2="419.21" y2="261.513" gradientUnits="userSpaceOnUse">
<stop stop-color="#F6FDFF"/>
<stop offset="1" stop-color="#CDE3FF"/>
</linearGradient>
<linearGradient id="paint2_linear" x1="138.676" y1="242.989" x2="168.988" y2="164.828" gradientUnits="userSpaceOnUse">
<stop stop-color="#EEEEEE"/>
<stop offset="1" stop-color="#D6D7D8"/>
</linearGradient>
<linearGradient id="paint3_linear" x1="131.762" y1="480.862" x2="204.698" y2="480.862" gradientUnits="userSpaceOnUse">
<stop stop-color="#EEEEEE"/>
<stop offset="1" stop-color="#D6D7D8"/>
</linearGradient>
<linearGradient id="paint4_linear" x1="101.173" y1="480.862" x2="28.2366" y2="480.862" gradientUnits="userSpaceOnUse">
<stop stop-color="#EEEEEE"/>
<stop offset="1" stop-color="#D6D7D8"/>
</linearGradient>
<linearGradient id="paint5_linear" x1="140.402" y1="94.7819" x2="183.453" y2="94.7819" gradientUnits="userSpaceOnUse">
<stop stop-color="#428DFC"/>
<stop offset="1" stop-color="#1D72D8"/>
</linearGradient>
<linearGradient id="paint6_linear" x1="70.2255" y1="171.152" x2="130.663" y2="171.152" gradientUnits="userSpaceOnUse">
<stop stop-color="#EEEEEE"/>
<stop offset="1" stop-color="#D6D7D8"/>
</linearGradient>
<linearGradient id="paint7_linear" x1="102.553" y1="199.397" x2="100.597" y2="239.457" gradientUnits="userSpaceOnUse">
<stop stop-color="#EEEEEE"/>
<stop offset="1" stop-color="#D6D7D8"/>
</linearGradient>
<linearGradient id="paint8_linear" x1="212.66" y1="216.329" x2="260.261" y2="216.329" gradientUnits="userSpaceOnUse">
<stop stop-color="#EEEEEE"/>
<stop offset="1" stop-color="#D6D7D8"/>
</linearGradient>
<linearGradient id="paint9_linear" x1="232.373" y1="362.264" x2="306.844" y2="362.264" gradientUnits="userSpaceOnUse">
<stop stop-color="#EEEEEE"/>
<stop offset="1" stop-color="#D6D7D8"/>
</linearGradient>
</defs>
</svg>
