<svg width="319" height="239" viewBox="0 0 319 239" fill="none" xmlns="http://www.w3.org/2000/svg">
<g clip-path="url(#clip0)">
<g opacity="0.3">
<path opacity="0.3" d="M308.499 -54.4379V244.392H-43.3323V-54.4379H308.499ZM309.629 -55.5675H-44.4606V245.572H309.629V-55.5675Z" fill="#C4ECFE"/>
<path opacity="0.3" d="M42.318 -55.5675H41.241V245.572H42.318V-55.5675Z" fill="#C4ECFE"/>
<path opacity="0.3" d="M87.3489 -55.5675H86.2718V245.572H87.3489V-55.5675Z" fill="#C4ECFE"/>
<path opacity="0.3" d="M42.318 -55.5675H41.241V245.572H42.318V-55.5675Z" fill="#C4ECFE"/>
<path opacity="0.3" d="M132.379 -55.5675H131.302V245.572H132.379V-55.5675Z" fill="#C4ECFE"/>
<path opacity="0.3" d="M177.41 -55.5675H176.333V245.572H177.41V-55.5675Z" fill="#C4ECFE"/>
<path opacity="0.3" d="M221.928 -55.5675H220.851V245.572H221.928V-55.5675Z" fill="#C4ECFE"/>
<path opacity="0.3" d="M266.445 -55.5675H265.368V245.572H266.445V-55.5675Z" fill="#C4ECFE"/>
</g>
<path d="M291.884 121.83C292.734 121.83 293.423 121.141 293.423 120.29C293.423 119.439 292.734 118.749 291.884 118.749C291.034 118.749 290.345 119.439 290.345 120.29C290.345 121.141 291.034 121.83 291.884 121.83Z" fill="#BFD9FF"/>
<path d="M64.731 160.339C65.4959 160.339 66.116 159.719 66.116 158.953C66.116 158.187 65.4959 157.566 64.731 157.566C63.966 157.566 63.3459 158.187 63.3459 158.953C63.3459 159.719 63.966 160.339 64.731 160.339Z" fill="#BFD9FF"/>
<path d="M70.5886 122.176L68.844 129.136L87.8351 133.881C88.4997 134.047 89.2042 133.872 89.7174 133.413L90.43 132.775C90.9432 132.316 91.6478 132.141 92.3123 132.307L96.5831 133.374C97.1015 133.503 97.6279 133.185 97.7588 132.663C97.8897 132.141 97.5755 131.612 97.057 131.483L92.7863 130.416C92.1217 130.25 91.5829 129.764 91.3469 129.117L91.019 128.22C90.7829 127.573 90.2442 127.087 89.5796 126.921L70.5885 122.177L70.5886 122.176Z" fill="#F9D5FF"/>
<path d="M95.4457 133.091L96.584 133.375C97.1024 133.505 97.6287 133.187 97.7596 132.665C97.8904 132.143 97.5763 131.615 97.0579 131.485L95.9196 131.201L95.4457 133.091Z" fill="#ABABC2"/>
<path d="M95.8351 131.18L95.6134 132.064L95.7815 132.106L96.0032 131.222L95.8351 131.18Z" fill="#2B2B2B"/>
<path d="M77.6039 126.195L76.9283 128.89L83.3994 130.506L84.075 127.811L77.6039 126.195Z" fill="#2B2B2B"/>
<path d="M78.203 126.345L77.6786 128.436L83.5506 129.903L84.075 127.812L78.203 126.345Z" fill="#C4ECFE"/>
<path d="M82.2881 127.366L82.2138 127.662L82.2979 127.683L82.3721 127.387L82.2881 127.366Z" fill="#2B2B2B"/>
<path d="M82.1552 127.897L82.0181 128.444L82.1021 128.465L82.2392 127.918L82.1552 127.897Z" fill="#2B2B2B"/>
<path d="M82.2322 129.016L82.211 129.101L81.8746 129.017L81.9595 128.678L82.0436 128.699L81.9799 128.953L82.2322 129.016Z" fill="#2B2B2B"/>
<path d="M82.4098 129.06L82.3886 129.145L82.8028 129.249L82.8241 129.164L82.4098 129.06Z" fill="#2B2B2B"/>
<path d="M83.4018 129.038L83.3169 129.377L82.9805 129.293L83.0018 129.209L83.254 129.271L83.3177 129.017L83.4018 129.038Z" fill="#2B2B2B"/>
<path d="M83.5135 128.236L83.3764 128.783L83.4605 128.804L83.5976 128.257L83.5135 128.236Z" fill="#2B2B2B"/>
<path d="M83.6464 127.706L83.5721 128.002L83.6562 128.023L83.7305 127.727L83.6464 127.706Z" fill="#2B2B2B"/>
<path d="M80.4105 126.897L80.3362 127.193L80.4203 127.214L80.4945 126.918L80.4105 126.897Z" fill="#2B2B2B"/>
<path d="M80.2776 127.427L80.1405 127.974L80.2245 127.995L80.3616 127.448L80.2776 127.427Z" fill="#2B2B2B"/>
<path d="M80.3548 128.546L80.3336 128.631L79.9972 128.547L80.0821 128.208L80.1662 128.229L80.1025 128.483L80.3548 128.546Z" fill="#2B2B2B"/>
<path d="M80.5322 128.591L80.511 128.676L80.9252 128.779L80.9465 128.695L80.5322 128.591Z" fill="#2B2B2B"/>
<path d="M81.5241 128.569L81.4392 128.908L81.1028 128.824L81.1241 128.739L81.3763 128.802L81.44 128.548L81.5241 128.569Z" fill="#2B2B2B"/>
<path d="M81.6358 127.767L81.4987 128.314L81.5828 128.335L81.7199 127.788L81.6358 127.767Z" fill="#2B2B2B"/>
<path d="M81.7687 127.236L81.6944 127.533L81.7785 127.554L81.8528 127.257L81.7687 127.236Z" fill="#2B2B2B"/>
<path d="M78.5328 126.427L78.4585 126.724L78.5426 126.745L78.6169 126.448L78.5328 126.427Z" fill="#2B2B2B"/>
<path d="M78.3999 126.958L78.2628 127.505L78.3469 127.526L78.484 126.979L78.3999 126.958Z" fill="#2B2B2B"/>
<path d="M78.477 128.077L78.4558 128.162L78.1194 128.078L78.2043 127.739L78.2884 127.76L78.2247 128.014L78.477 128.077Z" fill="#2B2B2B"/>
<path d="M78.6546 128.122L78.6333 128.206L79.0476 128.31L79.0688 128.225L78.6546 128.122Z" fill="#2B2B2B"/>
<path d="M79.6466 128.1L79.5616 128.438L79.2253 128.354L79.2465 128.27L79.4988 128.333L79.5625 128.079L79.6466 128.1Z" fill="#2B2B2B"/>
<path d="M79.7583 127.297L79.6212 127.844L79.7052 127.865L79.8423 127.318L79.7583 127.297Z" fill="#2B2B2B"/>
<path d="M79.8912 126.767L79.8169 127.063L79.9009 127.084L79.9752 126.788L79.8912 126.767Z" fill="#2B2B2B"/>
<path d="M84.6608 32.7493L103.495 55.6552C104.465 57.0819 105.059 58.7286 105.223 60.4441C105.387 62.1596 105.116 63.8888 104.435 65.4726C103.754 67.0563 102.684 68.4439 101.324 69.5076C99.9641 70.5714 98.3578 71.2772 96.6527 71.5601L52.034 79.0996C51.746 79.1344 51.4219 79.1714 51.1339 79.2073C48.4875 79.415 45.8626 78.5978 43.805 76.9257C41.7475 75.2536 40.4155 72.8551 40.086 70.229C39.7566 67.603 40.455 64.9513 42.0361 62.8255C43.6173 60.6996 45.9594 59.2631 48.5756 58.8146L80.086 53.7163L72.1286 40.1452L84.6608 32.7493Z" fill="url(#paint0_linear)"/>
<path d="M69.8146 89.7138C68.5629 78.841 61.8282 79.6572 63.8664 72.0281C65.9046 64.3991 60.2388 54.8827 51.8337 55.8445C45.3598 56.5575 44.8963 56.3435 42.1439 56.6645C33.5259 57.627 28.5554 67.0385 31.9883 74.9889C32.5913 76.3298 32.9544 77.7656 33.061 79.2313C33.3113 81.691 27.6256 86.0049 28.447 93.4914L69.8146 89.7138Z" fill="url(#paint1_linear)"/>
<path d="M28.4488 93.4914C29.0926 99.2313 36.1014 107.181 46.1497 106.147L54.2312 105.041C63.3854 104.078 69.858 95.13 69.1428 88.9269L28.4488 93.4914Z" fill="url(#paint2_linear)"/>
<path d="M69.6433 88.9757C70.7846 93.75 71.8766 101.222 72.6211 106.021C73.3405 110.821 73.9608 115.645 74.4821 120.494C74.7303 122.919 74.9784 125.343 75.177 127.767L75.4748 131.404L75.7478 135.041L75.8719 136.872L75.9712 138.703L76.1935 142.364C76.3176 144.788 76.4661 147.238 76.5902 149.662C77.0865 159.41 77.4092 169.182 77.434 179.005C77.4592 183.903 77.4009 188.818 77.2592 193.749L77.1351 197.436L77.0607 199.291L76.9614 201.146C76.887 202.383 76.8373 203.621 76.7629 204.857C76.6636 206.094 76.8146 207.777 76.6905 209.014L58.9707 210.868L51.2807 152.88C50.6106 148.056 50.0398 143.232 49.4442 138.383L47.6577 123.86L44.0591 94.8397L69.6433 88.9757Z" fill="url(#paint3_linear)"/>
<path d="M49.9898 142.909L57.3984 199.011C56.6294 193.197 63.2309 172.174 60.7495 164.752C58.2681 157.33 64.0352 146.051 59.7669 139.521C55.4986 132.992 57.6081 120.422 58.8232 112.58L49.9898 142.909Z" fill="#2B2B2B"/>
<path d="M21.5023 198.377L36.9123 206.442C37.4086 205.327 37.8305 204.191 38.2755 203.053L39.5409 199.638L40.1861 197.93L40.7804 196.223L41.9716 192.807C43.5348 188.231 44.999 183.654 46.4133 179.052C49.1926 169.849 51.7326 160.613 54.0333 151.343C54.6276 149.018 55.1498 146.693 55.6461 144.367L56.4151 140.879L57.1349 137.366C57.6312 135.016 58.0528 132.69 58.4981 130.34L59.1185 126.826L59.4412 125.07L59.739 123.314C60.5331 118.638 61.2277 113.913 61.7985 109.187C61.9733 108.024 62.0715 106.837 62.2204 105.649C62.3445 104.462 62.4686 103.274 62.5678 102.087L62.8656 98.5246L62.9401 97.3122C67.4562 94.6637 70.2851 89.7664 69.9628 85.9815L39.7621 89.0245C40.2088 93.7987 30.8288 133.282 30.8288 133.282L29.7351 140.332C29.388 142.682 29.0405 145.033 28.6435 147.383L21.5023 198.377Z" fill="url(#paint4_linear)"/>
<path d="M90.2147 212.403L76.6905 209.014L58.8239 208.767L58.8983 212.329C58.9052 213.04 59.1932 213.719 59.6997 214.22C60.2061 214.72 60.8901 215.001 61.6031 215.001L89.8673 215.1C90.2048 215.106 90.5325 214.987 90.7877 214.767C91.043 214.547 91.2079 214.24 91.2509 213.907C91.2939 213.573 91.212 213.235 91.0208 212.958C90.8297 212.68 90.5427 212.483 90.2147 212.403Z" fill="#2B2B2B"/>
<path d="M47.5332 212.379L42.2722 211.067L37.4335 206.441L21.5023 198.377L19.9887 201.618C19.692 202.263 19.658 202.997 19.8941 203.666C20.1302 204.336 20.6178 204.887 21.2541 205.205L41.2302 215.076L47.1858 215.101C48.7986 215.125 49.0964 212.799 47.5332 212.379Z" fill="#2B2B2B"/>
<path d="M52.0011 159.411C51.9057 159.388 51.8232 159.329 51.7717 159.246C51.7202 159.163 51.7039 159.062 51.7264 158.967C53.8359 151.126 59.1213 124.802 60.3622 117.034C60.3704 116.987 60.3878 116.942 60.4134 116.901C60.439 116.861 60.4723 116.826 60.5115 116.798C60.5506 116.771 60.5948 116.751 60.6416 116.741C60.6884 116.73 60.7367 116.729 60.784 116.737C60.8312 116.745 60.8764 116.762 60.9169 116.788C60.9574 116.813 60.9925 116.847 61.0201 116.886C61.0478 116.925 61.0674 116.969 61.078 117.015C61.0885 117.062 61.0897 117.11 61.0816 117.157C59.84 124.924 54.5528 151.272 52.445 159.137C52.4317 159.218 52.3886 159.29 52.3243 159.341C52.26 159.391 52.1791 159.416 52.0976 159.41L52.0011 159.411Z" fill="#2B2B2B"/>
<path d="M54.0459 62.5636L61.5961 59.1241C61.5961 59.1241 56.8773 54.7391 48.866 55.773L54.0459 62.5636Z" fill="#2B2B2B"/>
<path d="M48.0806 89.3204C47.9711 89.3245 47.8643 89.2852 47.7839 89.211C47.7034 89.1367 47.6557 89.0337 47.6514 88.9245C47.6514 88.9137 47.6514 88.9029 47.6514 88.8924L47.5815 81.2989C47.5771 81.1898 47.6164 81.0834 47.6908 81.0031C47.7651 80.9229 47.8684 80.8753 47.9779 80.871C47.9886 80.871 47.9994 80.871 48.0104 80.871C48.1199 80.8667 48.2266 80.9058 48.3071 80.98C48.3876 81.0541 48.4352 81.157 48.4396 81.2662C48.4396 81.277 48.4396 81.2881 48.4396 81.2989L48.5095 88.8924C48.5117 88.9465 48.5031 89.0005 48.4843 89.0513C48.4655 89.1021 48.4368 89.1487 48.4 89.1885C48.3631 89.2282 48.3187 89.2603 48.2694 89.283C48.22 89.3056 48.1667 89.3183 48.1124 89.3204C48.1016 89.3204 48.0911 89.3204 48.0803 89.3204H48.0806Z" fill="#2B2B2B"/>
<path d="M67.9054 96.2566C67.8438 96.2591 67.7825 96.2472 67.7264 96.2218C67.6756 96.2006 67.6295 96.1696 67.5907 96.1306C67.5519 96.0916 67.5212 96.0453 67.5003 95.9945C67.4794 95.9436 67.4688 95.8892 67.469 95.8343C67.4693 95.7793 67.4804 95.725 67.5017 95.6743C67.5047 95.6667 67.5082 95.659 67.5122 95.6513L69.3357 91.5158C69.3592 91.4643 69.3926 91.4179 69.4341 91.3793C69.4756 91.3407 69.5243 91.3106 69.5774 91.2907C69.6305 91.2708 69.6871 91.2616 69.7438 91.2635C69.8005 91.2654 69.8563 91.2785 69.9079 91.3019C69.9596 91.3253 70.0061 91.3586 70.0449 91.3999C70.0836 91.4413 70.1138 91.4898 70.1338 91.5428C70.1537 91.5958 70.163 91.6521 70.161 91.7087C70.1591 91.7652 70.146 91.8208 70.1226 91.8724L68.2986 96.0078C68.2691 96.0863 68.2148 96.153 68.1438 96.1979C68.0729 96.2428 67.9892 96.2634 67.9054 96.2566Z" fill="#2B2B2B"/>
<path d="M69.7304 88.8412C69.621 88.8454 69.5144 88.8062 69.434 88.7322C69.3536 88.6582 69.3059 88.5554 69.3015 88.4464C69.3015 88.4352 69.3015 88.4244 69.3015 88.4136C69.3015 88.3788 69.3015 85.8467 68.4433 84.2781C67.8335 83.1973 67.1145 82.1814 66.2975 81.2463C65.2705 80.1458 64.4581 78.8643 63.9017 77.4673C63.8571 77.3657 63.8548 77.2505 63.8953 77.1471C63.9359 77.0438 64.0159 76.9607 64.1179 76.9162C64.2199 76.8717 64.3354 76.8694 64.4391 76.9098C64.5428 76.9502 64.6261 77.0301 64.6707 77.1317C64.6781 77.1481 64.6843 77.165 64.6892 77.1823C65.2394 78.4829 66.014 79.6773 66.9777 80.7114C67.8469 81.6798 68.6027 82.7437 69.2305 83.8826C70.196 85.6296 70.196 88.3035 70.196 88.4105C70.181 88.5248 70.1263 88.6302 70.0413 88.7083C69.9563 88.7865 69.8465 88.8324 69.7311 88.8381L69.7304 88.8412Z" fill="#2B2B2B"/>
<path d="M40.0079 57.0927C37.1358 58.052 34.4631 59.5251 32.1207 61.4397L39.4262 59.6945L40.0079 57.0927Z" fill="#F8DDC5"/>
<path d="M65.8529 115.274L72.5757 119.16C74.2815 120.148 75.5525 121.739 76.1367 123.618C76.7208 125.497 76.5754 127.526 75.7293 129.303C74.8832 131.079 73.3981 132.474 71.5687 133.211C69.7393 133.947 67.6992 133.971 65.8529 133.278L60.0955 131.103" fill="#EA7068"/>
<path d="M60.0955 131.067L30.6659 119.98C28.7291 119.255 27.078 117.927 25.9573 116.194C24.8366 114.46 24.306 112.412 24.444 110.354L24.479 109.534L26.9464 70.4255C27.0128 67.5511 28.2218 64.8207 30.3074 62.835C32.393 60.8493 35.1844 59.7709 38.0675 59.8371C40.9507 59.9032 43.6894 61.1086 45.6811 63.1879C47.6728 65.2672 48.7545 68.0501 48.6881 70.9245C48.6881 71.2099 48.6532 71.495 48.6532 71.78L46.1857 110.889L39.9638 100.372L65.8532 115.274" fill="url(#paint5_linear)"/>
<path d="M46.543 104.614C46.473 104.614 46.4 104.579 46.3283 104.579L42.109 102.155C42.0133 102.1 41.9436 102.009 41.9152 101.902C41.8869 101.796 41.9022 101.682 41.9578 101.587C42.0134 101.491 42.1048 101.422 42.2118 101.393C42.3188 101.365 42.4327 101.38 42.5284 101.436L42.5393 101.442L46.7579 103.868C46.838 103.911 46.9009 103.98 46.9362 104.064C46.9715 104.147 46.9771 104.24 46.9521 104.328C46.9271 104.415 46.8729 104.491 46.7986 104.544C46.7242 104.596 46.6342 104.622 46.5433 104.616L46.543 104.614Z" fill="#2B2B2B"/>
<path d="M72.2006 40.217L68.9596 34.8325C67.9423 33.3281 67.5662 31.4823 67.9139 29.7013C68.2616 27.9203 69.3047 26.35 70.8138 25.3358C72.3228 24.3216 74.1742 23.9465 75.9606 24.2932C77.747 24.6399 79.3221 25.6798 80.3394 27.1843L84.6968 32.7852L72.2006 40.217Z" fill="#EA7068"/>
<path d="M58.3723 52.4955L51.6739 49.8749C50.0096 49.2197 48.6734 47.9337 47.958 46.2985C47.2426 44.6633 47.2063 42.8121 47.8569 41.1502L51.818 31.0975C52.3331 29.7865 53.1023 28.5896 54.0816 27.5751C55.0609 26.5606 56.2311 25.7484 57.5254 25.1849C58.8196 24.6214 60.2125 24.3177 61.6246 24.2912C63.0366 24.2646 64.44 24.5156 65.7547 25.03H65.7896C67.1046 25.5435 68.3053 26.3103 69.3229 27.2866C70.3405 28.263 71.1552 29.4296 71.7204 30.72C72.2856 32.0103 72.5902 33.3991 72.6168 34.8068C72.6434 36.2146 72.3916 37.6138 71.8755 38.9245V38.9593L68.2403 48.1862C67.8762 49.1151 67.3322 49.9635 66.6392 50.6829C65.9462 51.4022 65.1179 51.9784 64.2016 52.3786C63.2852 52.7788 62.2988 52.995 61.2986 53.0151C60.2984 53.0352 59.304 52.8586 58.3723 52.4955Z" fill="#EA7068"/>
<path d="M71.1911 40.7195L70.3267 42.9456C70.1528 42.8408 70.0086 42.6934 69.9078 42.5175C69.807 42.3416 69.7529 42.1429 69.7506 41.9403C69.7494 41.7797 69.7803 41.6206 69.8413 41.4721C69.9024 41.3236 69.9924 41.1886 70.1063 41.0751C70.2201 40.9616 70.3555 40.8718 70.5044 40.8109C70.6534 40.7501 70.8131 40.7194 70.974 40.7206L71.1911 40.7195Z" fill="#2B2B2B"/>
<path d="M50.4942 62.4326L42.5711 56.6477L49.1775 37.2786L60.1805 40.4327L55.491 60.5598C55.3986 60.9678 55.2259 61.3534 54.983 61.6943C54.74 62.0353 54.4315 62.3247 54.0755 62.5458C53.7194 62.767 53.3229 62.9155 52.9088 62.9826C52.4948 63.0498 52.0715 63.0344 51.6635 62.9372C51.2359 62.8747 50.8325 62.7006 50.4942 62.4326Z" fill="#EA7068"/>
<path d="M66.9791 44.3114C66.8961 44.3082 66.8163 44.2786 66.7515 44.2268C66.6867 44.1751 66.6403 44.1039 66.6191 44.0239C66.6075 43.9338 66.6309 43.8428 66.6844 43.7694C66.738 43.696 66.8176 43.6458 66.9071 43.629L68.0235 43.4496C68.143 43.397 68.2435 43.3094 68.3116 43.1983C68.3434 43.1447 68.3631 43.0847 68.3691 43.0227C68.3752 42.9607 68.3675 42.8981 68.3465 42.8394L67.5908 40.6118C67.56 40.5213 67.5652 40.4224 67.6054 40.3356C67.6456 40.2487 67.7177 40.1806 67.8068 40.1452C67.8884 40.1165 67.9778 40.1189 68.0576 40.1521C68.1375 40.1852 68.2022 40.2467 68.2392 40.3247V40.3595L68.9953 42.5853C69.0919 42.879 69.0795 43.1976 68.9603 43.483C68.8869 43.6273 68.7854 43.7556 68.6618 43.8604C68.5382 43.9652 68.3949 44.0445 68.2403 44.0936H68.2053L67.0518 44.273C67.0151 44.3114 67.0151 44.3114 66.9791 44.3114Z" fill="#2B2B2B"/>
<path d="M65.8267 48.1872C65.7386 48.1827 65.6548 48.1481 65.5892 48.0893C65.5237 48.0305 65.4804 47.951 65.4666 47.8642C65.4505 47.6507 65.3873 47.4434 65.2814 47.2572C65.1755 47.071 65.0296 46.9104 64.8542 46.787C64.5999 46.6559 64.32 46.5816 64.0339 46.5692C63.7479 46.5568 63.4625 46.6066 63.1977 46.7152C63.1118 46.7438 63.018 46.7371 62.937 46.6967C62.856 46.6563 62.7943 46.5855 62.7657 46.4998C62.7371 46.4142 62.7437 46.3207 62.7842 46.2399C62.8247 46.1591 62.8958 46.0977 62.9817 46.0691H63.0167C63.9531 45.8179 64.7092 45.8537 65.2496 46.2486C65.5059 46.4389 65.7187 46.6814 65.8738 46.9599C66.029 47.2384 66.123 47.5467 66.1496 47.8642C66.1846 48.0077 66.0416 48.1872 65.8256 48.1872H65.8267Z" fill="#2B2B2B"/>
<path d="M57.4809 52.0986L52.9844 50.8242L56.4211 56.5972L57.4809 52.0986Z" fill="#2B2B2B"/>
<path d="M66.1122 25.092C64.4194 29.4363 68.1676 36.8419 72.0926 38.3871C72.0926 38.3871 76.4476 28.9696 66.1122 25.092Z" fill="#2B2B2B"/>
<path d="M67.0511 25.497C67.0511 25.497 61.4692 41.7249 47.5325 37.7396C47.5325 37.7396 49.9444 35.4047 51.7459 30.8462C53.5475 26.2877 58.9483 21.727 67.0511 25.497Z" fill="#2B2B2B"/>
<path d="M64.4582 40.6477C65.1344 40.6477 65.6826 40.1011 65.6826 39.427C65.6826 38.7528 65.1344 38.2062 64.4582 38.2062C63.7819 38.2062 63.2337 38.7528 63.2337 39.427C63.2337 40.1011 63.7819 40.6477 64.4582 40.6477Z" fill="#2B2B2B"/>
<path d="M80.7354 55.5113C80.6571 55.5102 80.5809 55.4856 80.5167 55.4408C80.4525 55.396 80.4033 55.333 80.3754 55.2601L79.7994 53.8947C79.7682 53.7938 79.7726 53.6854 79.8119 53.5874C79.8513 53.4894 79.9231 53.4079 80.0154 53.3563C80.0624 53.3351 80.1133 53.3239 80.1649 53.3234C80.2164 53.3229 80.2675 53.3332 80.3149 53.3534C80.3623 53.3737 80.405 53.4035 80.4402 53.4411C80.4754 53.4787 80.5024 53.5231 80.5194 53.5716L81.0958 54.936C81.1354 55.0363 81.135 55.1478 81.0949 55.2479C81.0547 55.3479 80.9778 55.4289 80.8798 55.4744C80.8435 55.5113 80.8075 55.5113 80.7354 55.5113Z" fill="#2B2B2B"/>
<path d="M71.0964 32.4074L79.8472 31.6892L79.3792 25.9461L70.9164 25.3345L69.4759 25.981C68.8313 26.2567 68.2898 26.7274 67.928 27.3265C67.5662 27.9255 67.4022 28.6228 67.4594 29.3198C67.5377 30.2074 67.963 31.0287 68.6435 31.6064C69.3239 32.1841 70.205 32.4718 71.0964 32.4074Z" fill="#EA7068"/>
<path d="M60.0057 24.1793C52.5101 24.9721 44.8722 36.698 41.3215 41.9092C40.6176 42.9357 40.3266 44.1885 40.5062 45.4189C40.6858 46.6494 41.323 47.7675 42.2911 48.5514L46.8978 52.3028C47.4808 52.7746 48.1706 53.0974 48.9073 53.243C49.6439 53.3886 50.405 53.3527 51.1246 53.1383C51.8441 52.924 52.5002 52.5377 53.036 52.0131C53.5717 51.4884 53.9709 50.8413 54.1987 50.1279C55.3096 46.6406 56.5564 42.617 57.0926 40.4843C57.8801 37.3528 60.2843 35.0678 61.5318 34.0589C61.7801 33.8586 61.9832 33.6083 62.1277 33.3244C62.2723 33.0404 62.3551 32.7293 62.3707 32.4112C62.4892 29.9844 62.5035 24.2793 60.0057 24.1793Z" fill="#2B2B2B"/>
<path d="M119.386 231.428H117.352V54.3725H143.296V61.7281C143.296 62.6404 144.038 63.3829 144.95 63.3829H146.2C147.111 63.3829 147.853 62.6404 147.853 61.7281V60.0143H149.888V61.7281C149.888 63.7632 148.233 65.4184 146.2 65.4184H144.95C142.916 65.4184 141.262 63.7632 141.262 61.7281V56.408H119.386V231.428Z" fill="#ABABC2"/>
<path d="M172.061 238.8H167.585V159.179C167.585 157.006 165.817 155.238 163.645 155.238C161.473 155.238 159.706 157.006 159.706 159.179V192.995C159.706 197.507 156.036 201.179 151.526 201.179C147.015 201.179 143.345 197.507 143.345 192.995V62.0493H147.821V192.995C147.821 195.038 149.483 196.701 151.526 196.701C153.568 196.701 155.23 195.038 155.23 192.995V159.178C155.23 154.536 159.005 150.76 163.645 150.76C168.286 150.76 172.061 154.536 172.061 159.178V238.8Z" fill="#C4ECFE"/>
<path d="M147.824 130.547H143.323V135.269H147.824V130.547Z" fill="#2B2B2B"/>
<path d="M155.513 69.8873H135.313C132.037 69.8873 129.382 72.544 129.382 75.8206V114.447C129.382 117.724 132.038 120.38 135.313 120.38C137.408 120.38 139.107 122.08 139.107 124.176V130.65H151.719V124.176C151.719 122.08 153.417 120.38 155.512 120.38C158.788 120.38 161.443 117.724 161.443 114.447V75.8206C161.444 72.5436 158.788 69.8873 155.513 69.8873Z" fill="#C4ECFE"/>
<path d="M158.001 80.167H146.116V80.9812H158.001V80.167Z" fill="#2B2B2B"/>
<path d="M158.001 87.7339H140.713V88.5481H158.001V87.7339Z" fill="#2B2B2B"/>
<path d="M158.001 95.3004H146.116V96.1146H158.001V95.3004Z" fill="#2B2B2B"/>
<path d="M158.001 102.867H140.713V103.681H158.001V102.867Z" fill="#2B2B2B"/>
<path d="M158.001 110.434H146.116V111.248H158.001V110.434Z" fill="#2B2B2B"/>
<path d="M141.223 236.773H139.189V232.007H98.0911V236.773H96.0565V229.972H141.223V236.773Z" fill="#ABABC2"/>
<path d="M98.0911 236.772H96.0565V232.756C96.7149 232.544 97.394 232.556 98.0911 232.756V236.772Z" fill="#292B2D"/>
<path d="M141.222 236.786H139.188V232.769C139.846 232.558 140.525 232.57 141.222 232.769V236.786Z" fill="#292B2D"/>
<path d="M97.1446 239C98.493 239 99.586 237.907 99.586 236.558C99.586 235.209 98.493 234.115 97.1446 234.115C95.7962 234.115 94.7031 235.209 94.7031 236.558C94.7031 237.907 95.7962 239 97.1446 239Z" fill="#ABABC2"/>
<path d="M140.294 239C141.642 239 142.735 237.907 142.735 236.558C142.735 235.209 141.642 234.115 140.294 234.115C138.945 234.115 137.852 235.209 137.852 236.558C137.852 237.907 138.945 239 140.294 239Z" fill="#ABABC2"/>
<path d="M272.74 219.482L282.026 219.427L298.365 207.78C299.574 206.848 299.821 205.093 298.915 203.858L296.69 200.869L281.153 211.062L277.356 215.532L273.235 216.684C271.559 216.547 271.119 218.961 272.74 219.482Z" fill="#2B2B2B"/>
<path d="M206.119 219.481L237.612 219.221C239.26 219.192 240.532 217.72 240.475 215.872L240.359 211.426L220.463 211.975L205.599 216.104C203.835 216.652 204.297 219.51 206.119 219.481Z" fill="#2B2B2B"/>
<path d="M232.515 69.7523C235.941 67.8274 240.282 69.2202 241.94 72.7782C246.002 81.4936 252.812 96.1645 254.288 99.7216C254.822 101.014 255.357 102.281 255.89 103.598L257.44 107.474C257.974 108.766 258.456 110.082 258.964 111.373C259.472 112.665 259.98 113.981 260.462 115.272L261.909 119.194C262.391 120.51 262.874 121.8 263.354 123.141C264.293 125.772 265.198 129.214 265.198 129.214L267.391 137.255L268.475 139.433L269.533 141.611C270.97 144.515 287.214 176.335 289.695 182.408C290.296 183.932 296.724 200.763 296.724 200.763L280.619 211.458L238.928 148.545C238.57 147.972 238.24 147.297 237.985 146.677L211.711 81.4425L232.515 69.7523Z" fill="url(#paint6_linear)"/>
<path d="M240.814 76.1277C240.814 76.1277 241.78 104.955 241.111 110.483C240.94 111.87 240.374 211.943 240.374 211.943L219.478 212.002L208.398 75.0695L240.814 76.1277Z" fill="url(#paint7_linear)"/>
<path d="M185.514 47.6939L191.722 43.4313C194.946 41.227 195.75 36.8138 193.53 33.6292L187.086 24.2814C183.537 19.1451 176.502 17.8701 171.37 21.3788C166.225 24.9216 164.948 31.9445 168.462 37.0688L174.377 45.6291C176.878 49.2704 181.867 50.1909 185.514 47.6939Z" fill="#FDC068"/>
<path d="M171.257 39.349C171.504 39.8507 171.386 40.4178 171.031 40.7902L169.623 38.7359C170.227 38.4676 170.954 38.7336 171.257 39.349Z" fill="#2B2B2B"/>
<path d="M197.673 54.9452L203.659 46.546L190.68 29.3951L180.745 36.1653L192.064 54.7247C193.347 56.8125 196.282 56.9009 197.673 54.9452Z" fill="#FDC068"/>
<path d="M175.091 43.6485C175.045 43.6711 174.999 43.6932 174.965 43.6817L173.702 43.7641C172.997 43.7139 172.5 43.1082 172.55 42.4044L172.784 39.941C172.796 39.7366 172.979 39.5902 173.184 39.6031C173.389 39.616 173.536 39.7987 173.523 40.0031L173.289 42.4665C173.264 42.7616 173.468 43.0018 173.741 43.0377L174.925 42.9664C175.118 42.9563 175.3 43.0939 175.321 43.3098C175.308 43.4566 175.228 43.5809 175.091 43.6485Z" fill="#2B2B2B"/>
<path d="M187.126 46.592L191.173 43.8137L189.646 50.7327L187.126 46.592Z" fill="#2B2B2B"/>
<path d="M176.46 39.35C175.758 39.35 175.188 38.7814 175.188 38.0801C175.188 37.3787 175.758 36.8102 176.46 36.8102C177.163 36.8102 177.732 37.3787 177.732 38.0801C177.732 38.7814 177.163 39.35 176.46 39.35Z" fill="#2B2B2B"/>
<path d="M176.46 27.2875L183.574 36.8442L185.736 35.2461L183.56 32.3234C183.2 31.8212 183.693 31.1543 184.272 31.3513L195.044 35.2079L186.886 23.5307C186.886 23.5307 185.057 21.4847 183.343 20.8256C181.857 20.2815 176.46 27.2875 176.46 27.2875Z" fill="#5D5D5D"/>
<path d="M213 131.57L213.286 136.189L234.061 138.963L232.606 134.34L267.671 137.774L265.819 131.566L213 131.57Z" fill="#2B2B2B"/>
<path d="M208.279 76.3886L192.802 56.9938C190.32 53.8847 190.653 49.3928 193.566 46.6822C200.81 39.9414 212.135 40.2585 218.989 47.3943L239.169 68.0272C240.519 69.437 243.646 76.4581 241.693 76.4439L234.163 76.3891H208.279V76.3886Z" fill="url(#paint8_linear)"/>
<path d="M208.433 76.7726H231.178C231.433 76.7726 231.639 76.5664 231.639 76.3123C231.639 76.0582 231.433 75.852 231.178 75.852H208.433C208.178 75.852 207.972 76.0582 207.972 76.3123C207.972 76.5664 208.178 76.7726 208.433 76.7726Z" fill="#2B2B2B"/>
<path d="M205.3 72.5531C205.3 72.1154 205.3 60.0828 205.3 60.0828L199.711 65.6618L205.3 72.5531Z" fill="#2B2B2B"/>
<path d="M150.925 75.8179L144.93 76.5944C141.182 77.0754 138.266 80.2292 138.169 84.1107C138.078 88.4088 141.474 91.9378 145.765 92.0487L151.164 92.1592L150.925 75.8179Z" fill="#FDC068"/>
<path d="M150.94 75.7972L174.687 72.8726L193.426 47.3579C196.809 42.7528 203.276 41.4562 208.007 44.6671C212.973 48.0382 214.111 54.8158 210.591 59.6092L188.804 89.2732C187.14 91.5392 184.473 92.8533 181.659 92.7935L151.144 92.1449L150.94 75.7972Z" fill="url(#paint9_linear)"/>
<path d="M178.619 79.8407C178.696 79.8407 178.775 79.8214 178.847 79.78C179.068 79.6539 179.145 79.3726 179.018 79.1522L175.33 72.7083C175.204 72.4873 174.922 72.4105 174.701 72.537C174.48 72.6631 174.403 72.9444 174.53 73.1648L178.218 79.6088C178.303 79.7579 178.459 79.8407 178.619 79.8407Z" fill="#2B2B2B"/>
<path d="M243.512 156.545C243.597 156.545 243.684 156.521 243.761 156.472C243.975 156.334 244.037 156.049 243.898 155.836L239.731 149.392C239.592 149.178 239.306 149.117 239.093 149.255C238.879 149.393 238.818 149.678 238.956 149.891L243.124 156.335C243.212 156.471 243.36 156.545 243.512 156.545Z" fill="#2B2B2B"/>
<path d="M162.712 28.3734L180.567 15.1708L188.038 25.24L170.182 38.4426L162.712 28.3734Z" fill="#2B2B2B"/>
<path d="M186.38 33.5399C184.033 33.5399 182.131 31.6407 182.131 29.2979C182.131 26.9552 184.033 25.056 186.38 25.056C188.727 25.056 190.629 26.9552 190.629 29.2979C190.629 31.6407 188.727 33.5399 186.38 33.5399Z" fill="#FDC068"/>
<path d="M160.507 25.156L178.362 11.9534L185.833 22.0227L167.977 35.2253L160.507 25.156Z" fill="#C4ECFE"/>
<path d="M171.031 40.7902L170.748 40.3778L168.463 37.0693C165.882 33.307 165.888 28.5233 168.107 24.8429C171.538 26.719 173.866 30.3566 173.866 34.5378C173.866 37.136 172.965 39.5226 171.461 41.4088L171.032 40.7884C171.032 40.7893 171.032 40.7897 171.031 40.7902Z" fill="#2B2B2B"/>
<path d="M160.507 25.1517L163.088 23.2434C167.93 23.5044 171.942 26.8732 173.163 31.3867L167.977 35.2208L160.507 25.1517Z" fill="#2B2B2B"/>
<path d="M159.408 44.3992C153.296 44.3992 148.342 39.4535 148.342 33.3525C148.342 27.2516 153.296 22.3058 159.408 22.3058C165.519 22.3058 170.473 27.2516 170.473 33.3525C170.473 39.4535 165.519 44.3992 159.408 44.3992Z" fill="#F9D5FF"/>
<path d="M159.408 41.1773C163.729 41.1773 167.245 37.6672 167.245 33.3525C167.245 33.0985 167.039 32.8922 166.784 32.8922C166.529 32.8922 166.323 33.0985 166.323 33.3525C166.323 37.1595 163.221 40.2567 159.408 40.2567C155.594 40.2567 152.492 37.1595 152.492 33.3525C152.492 32.0973 152.832 30.8689 153.477 29.7996C153.608 29.5819 153.537 29.2988 153.319 29.1677C153.102 29.036 152.818 29.1069 152.687 29.3246C151.956 30.537 151.57 31.9298 151.57 33.3521C151.57 37.6672 155.086 41.1773 159.408 41.1773Z" fill="#2B2B2B"/>
</g>
<defs>
<linearGradient id="paint0_linear" x1="70.2516" y1="56.0996" x2="83.9765" y2="108.675" gradientUnits="userSpaceOnUse">
<stop stop-color="#FFE0C2"/>
<stop offset="0.401" stop-color="#7AAEFC"/>
<stop offset="0.591" stop-color="#B8C1FC"/>
<stop offset="1" stop-color="#D2D4D4"/>
</linearGradient>
<linearGradient id="paint1_linear" x1="3508.86" y1="-41790.2" x2="3508.86" y2="-33746.6" gradientUnits="userSpaceOnUse">
<stop stop-color="#FFE0C2"/>
<stop offset="0.401" stop-color="#7AAEFC"/>
<stop offset="0.591" stop-color="#B8C1FC"/>
<stop offset="1" stop-color="#D2D4D4"/>
</linearGradient>
<linearGradient id="paint2_linear" x1="48.8227" y1="234.468" x2="48.8227" y2="93.9674" gradientUnits="userSpaceOnUse">
<stop stop-color="#6B9C83"/>
<stop offset="0.4" stop-color="#A6A6A4"/>
<stop offset="0.5" stop-color="#9F9FC8"/>
<stop offset="0.59" stop-color="#9FCCEC"/>
<stop offset="1" stop-color="#FFE7B0"/>
</linearGradient>
<linearGradient id="paint3_linear" x1="60.7495" y1="92.0448" x2="60.7495" y2="211.622" gradientUnits="userSpaceOnUse">
<stop stop-color="#BFE7D1"/>
<stop offset="0.409" stop-color="#E89AC0"/>
<stop offset="0.499" stop-color="#A7A7AE"/>
<stop offset="0.599" stop-color="#47A6D3"/>
<stop offset="1" stop-color="#9774AC"/>
</linearGradient>
<linearGradient id="paint4_linear" x1="200604" y1="358699" x2="200604" y2="317365" gradientUnits="userSpaceOnUse">
<stop stop-color="#BFE7D1"/>
<stop offset="0.409" stop-color="#E89AC0"/>
<stop offset="0.499" stop-color="#A7A7AE"/>
<stop offset="0.599" stop-color="#47A6D3"/>
<stop offset="1" stop-color="#9774AC"/>
</linearGradient>
<linearGradient id="paint5_linear" x1="3034.98" y1="-79268.5" x2="3034.98" y2="-64631.2" gradientUnits="userSpaceOnUse">
<stop stop-color="#FFE0C2"/>
<stop offset="0.401" stop-color="#7AAEFC"/>
<stop offset="0.591" stop-color="#B8C1FC"/>
<stop offset="1" stop-color="#D2D4D4"/>
</linearGradient>
<linearGradient id="paint6_linear" x1="254.217" y1="37.3012" x2="254.217" y2="211.639" gradientUnits="userSpaceOnUse">
<stop stop-color="#6B9C83"/>
<stop offset="0.401" stop-color="#A6A6A4"/>
<stop offset="0.5011" stop-color="#9F9FC8"/>
<stop offset="0.5908" stop-color="#9FCCEC"/>
<stop offset="1" stop-color="#FFE7B0"/>
</linearGradient>
<linearGradient id="paint7_linear" x1="224.873" y1="42.2514" x2="224.873" y2="211.634" gradientUnits="userSpaceOnUse">
<stop stop-color="#6B9C83"/>
<stop offset="0.401" stop-color="#A6A6A4"/>
<stop offset="0.5011" stop-color="#9F9FC8"/>
<stop offset="0.5908" stop-color="#9FCCEC"/>
<stop offset="1" stop-color="#FFE7B0"/>
</linearGradient>
<linearGradient id="paint8_linear" x1="216.729" y1="42.2514" x2="216.729" y2="211.634" gradientUnits="userSpaceOnUse">
<stop stop-color="#6B9C83"/>
<stop offset="0.401" stop-color="#A6A6A4"/>
<stop offset="0.5011" stop-color="#9F9FC8"/>
<stop offset="0.5908" stop-color="#9FCCEC"/>
<stop offset="1" stop-color="#FFE7B0"/>
</linearGradient>
<linearGradient id="paint9_linear" x1="181.787" y1="42.2514" x2="181.787" y2="211.634" gradientUnits="userSpaceOnUse">
<stop stop-color="#6B9C83"/>
<stop offset="0.401" stop-color="#A6A6A4"/>
<stop offset="0.5011" stop-color="#9F9FC8"/>
<stop offset="0.5908" stop-color="#9FCCEC"/>
<stop offset="1" stop-color="#FFE7B0"/>
</linearGradient>
<clipPath id="clip0">
<rect width="319" height="239" fill="white"/>
</clipPath>
</defs>
</svg>
