<svg width="327" height="62" viewBox="0 0 327 62" fill="none" xmlns="http://www.w3.org/2000/svg">
<rect x="2" y="1" width="325" height="59" rx="10" fill="#6D98F4"/>
<rect width="164" height="62" rx="10" fill="#2455EF"/>
<path d="M52.8599 32.5347H50.4092V38H47.333V23.0703H52.8804C54.644 23.0703 56.0044 23.4634 56.9614 24.2495C57.9185 25.0356 58.397 26.1465 58.397 27.582C58.397 28.6006 58.1748 29.4517 57.7305 30.1353C57.293 30.812 56.6265 31.3521 55.731 31.7554L58.9609 37.8564V38H55.6592L52.8599 32.5347ZM50.4092 30.043H52.8906C53.6631 30.043 54.2612 29.8481 54.6851 29.4585C55.1089 29.062 55.3208 28.5186 55.3208 27.8281C55.3208 27.124 55.1191 26.5703 54.7158 26.167C54.3193 25.7637 53.7075 25.562 52.8804 25.562H50.4092V30.043ZM65.6567 38.2051C64.0298 38.2051 62.7036 37.7061 61.6782 36.708C60.6597 35.71 60.1504 34.3804 60.1504 32.7192V32.4321C60.1504 31.3179 60.3657 30.3232 60.7964 29.4482C61.2271 28.5664 61.8354 27.8896 62.6216 27.418C63.4146 26.9395 64.3169 26.7002 65.3286 26.7002C66.8462 26.7002 68.0391 27.1787 68.9072 28.1357C69.7822 29.0928 70.2197 30.4497 70.2197 32.2065V33.4165H63.1548C63.2505 34.1411 63.5376 34.7222 64.0161 35.1597C64.5015 35.5972 65.1133 35.8159 65.8516 35.8159C66.9932 35.8159 67.8853 35.4023 68.5278 34.5752L69.9839 36.2056C69.5396 36.8345 68.938 37.3267 68.1792 37.6821C67.4204 38.0308 66.5796 38.2051 65.6567 38.2051ZM65.3184 29.0996C64.7305 29.0996 64.252 29.2979 63.8828 29.6943C63.5205 30.0908 63.2881 30.6582 63.1855 31.3965H67.3076V31.1606C67.2939 30.5044 67.1162 29.9985 66.7744 29.6431C66.4326 29.2808 65.9473 29.0996 65.3184 29.0996ZM71.481 32.3706C71.481 30.6685 71.8843 29.2979 72.6909 28.2588C73.5044 27.2197 74.5981 26.7002 75.9722 26.7002C77.189 26.7002 78.1357 27.1172 78.8125 27.9512L78.9355 26.9053H81.6221V37.6309C81.6221 38.6016 81.3999 39.4458 80.9556 40.1636C80.5181 40.8813 79.8994 41.4282 79.0996 41.8042C78.2998 42.1802 77.3633 42.3682 76.29 42.3682C75.4766 42.3682 74.6836 42.2041 73.9111 41.876C73.1387 41.5547 72.5542 41.1377 72.1577 40.625L73.4702 38.8203C74.2085 39.6475 75.104 40.061 76.1567 40.061C76.9429 40.061 77.5547 39.8491 77.9922 39.4253C78.4297 39.0083 78.6484 38.4136 78.6484 37.6411V37.0464C77.9648 37.8188 77.0659 38.2051 75.9517 38.2051C74.6187 38.2051 73.5386 37.6855 72.7114 36.6465C71.8911 35.6006 71.481 34.2163 71.481 32.4937V32.3706ZM74.4443 32.5859C74.4443 33.5908 74.646 34.3804 75.0493 34.9546C75.4526 35.522 76.0063 35.8057 76.7104 35.8057C77.6128 35.8057 78.2588 35.4673 78.6484 34.7905V30.125C78.252 29.4482 77.6128 29.1099 76.731 29.1099C76.02 29.1099 75.4595 29.4004 75.0493 29.9814C74.646 30.5625 74.4443 31.4307 74.4443 32.5859ZM87.0361 38H84.0625V26.9053H87.0361V38ZM83.8882 24.0342C83.8882 23.5898 84.0352 23.2241 84.3291 22.937C84.6299 22.6499 85.0366 22.5063 85.5493 22.5063C86.0552 22.5063 86.4585 22.6499 86.7593 22.937C87.0601 23.2241 87.2104 23.5898 87.2104 24.0342C87.2104 24.4854 87.0566 24.8545 86.749 25.1416C86.4482 25.4287 86.0483 25.5723 85.5493 25.5723C85.0503 25.5723 84.647 25.4287 84.3394 25.1416C84.0386 24.8545 83.8882 24.4854 83.8882 24.0342ZM95.4956 34.9341C95.4956 34.5718 95.3145 34.2881 94.9521 34.083C94.5967 33.8711 94.0225 33.6831 93.2295 33.519C90.5908 32.9653 89.2715 31.8442 89.2715 30.1558C89.2715 29.1714 89.6782 28.3511 90.4917 27.6948C91.312 27.0317 92.3818 26.7002 93.7012 26.7002C95.1094 26.7002 96.2339 27.0317 97.0747 27.6948C97.9224 28.3579 98.3462 29.2192 98.3462 30.2788H95.3828C95.3828 29.855 95.2461 29.5063 94.9727 29.2329C94.6992 28.9526 94.272 28.8125 93.6909 28.8125C93.1919 28.8125 92.8057 28.9253 92.5322 29.1509C92.2588 29.3765 92.1221 29.6636 92.1221 30.0122C92.1221 30.3403 92.2759 30.6069 92.5835 30.812C92.8979 31.0103 93.4243 31.1846 94.1626 31.335C94.9009 31.4785 95.5229 31.6426 96.0288 31.8271C97.5942 32.4014 98.377 33.396 98.377 34.811C98.377 35.8228 97.9429 36.6431 97.0747 37.272C96.2065 37.894 95.0854 38.2051 93.7114 38.2051C92.7817 38.2051 91.9546 38.041 91.23 37.7129C90.5122 37.3779 89.9482 36.9233 89.5381 36.3491C89.1279 35.7681 88.9229 35.1426 88.9229 34.4727H91.7324C91.7598 34.999 91.9546 35.4023 92.3169 35.6826C92.6792 35.9629 93.1646 36.103 93.7729 36.103C94.3403 36.103 94.7676 35.9971 95.0547 35.7852C95.3486 35.5664 95.4956 35.2827 95.4956 34.9341ZM103.842 24.1777V26.9053H105.739V29.0791H103.842V34.6162C103.842 35.0264 103.921 35.3203 104.078 35.498C104.235 35.6758 104.536 35.7646 104.98 35.7646C105.309 35.7646 105.599 35.7407 105.852 35.6929V37.9385C105.271 38.1162 104.673 38.2051 104.058 38.2051C101.979 38.2051 100.92 37.1558 100.879 35.0571V29.0791H99.2588V26.9053H100.879V24.1777H103.842ZM112.497 38.2051C110.87 38.2051 109.543 37.7061 108.518 36.708C107.5 35.71 106.99 34.3804 106.99 32.7192V32.4321C106.99 31.3179 107.206 30.3232 107.636 29.4482C108.067 28.5664 108.675 27.8896 109.461 27.418C110.254 26.9395 111.157 26.7002 112.168 26.7002C113.686 26.7002 114.879 27.1787 115.747 28.1357C116.622 29.0928 117.06 30.4497 117.06 32.2065V33.4165H109.995C110.09 34.1411 110.377 34.7222 110.856 35.1597C111.341 35.5972 111.953 35.8159 112.691 35.8159C113.833 35.8159 114.725 35.4023 115.368 34.5752L116.824 36.2056C116.379 36.8345 115.778 37.3267 115.019 37.6821C114.26 38.0308 113.419 38.2051 112.497 38.2051ZM112.158 29.0996C111.57 29.0996 111.092 29.2979 110.723 29.6943C110.36 30.0908 110.128 30.6582 110.025 31.3965H114.147V31.1606C114.134 30.5044 113.956 29.9985 113.614 29.6431C113.272 29.2808 112.787 29.0996 112.158 29.0996ZM124.986 29.6841C124.583 29.6294 124.227 29.6021 123.919 29.6021C122.798 29.6021 122.063 29.9814 121.715 30.7402V38H118.751V26.9053H121.551L121.633 28.228C122.228 27.2095 123.051 26.7002 124.104 26.7002C124.432 26.7002 124.74 26.7446 125.027 26.8335L124.986 29.6841Z" fill="white"/>
<path d="M222.075 34.083C222.075 33.502 221.87 33.0576 221.459 32.75C221.049 32.4355 220.311 32.1074 219.245 31.7656C218.178 31.417 217.334 31.0752 216.712 30.7402C215.017 29.8242 214.169 28.5903 214.169 27.0386C214.169 26.2319 214.395 25.5142 214.846 24.8853C215.304 24.2495 215.957 23.7539 216.804 23.3984C217.659 23.043 218.616 22.8652 219.675 22.8652C220.742 22.8652 221.692 23.0601 222.526 23.4497C223.36 23.8325 224.006 24.376 224.464 25.0801C224.929 25.7842 225.161 26.584 225.161 27.4795H222.085C222.085 26.7959 221.87 26.2661 221.439 25.8901C221.008 25.5073 220.403 25.3159 219.624 25.3159C218.872 25.3159 218.288 25.4766 217.871 25.7979C217.454 26.1123 217.245 26.5293 217.245 27.0488C217.245 27.5342 217.488 27.9409 217.973 28.269C218.465 28.5972 219.187 28.9048 220.137 29.1919C221.887 29.7183 223.162 30.3711 223.961 31.1504C224.761 31.9297 225.161 32.9004 225.161 34.0625C225.161 35.3545 224.672 36.3696 223.695 37.1079C222.717 37.8394 221.401 38.2051 219.747 38.2051C218.599 38.2051 217.553 37.9966 216.609 37.5796C215.666 37.1558 214.945 36.5781 214.446 35.8467C213.954 35.1152 213.708 34.2676 213.708 33.3037H216.794C216.794 34.9512 217.778 35.7749 219.747 35.7749C220.479 35.7749 221.049 35.6279 221.459 35.334C221.87 35.0332 222.075 34.6162 222.075 34.083ZM230.186 38H227.212V26.9053H230.186V38ZM227.038 24.0342C227.038 23.5898 227.185 23.2241 227.479 22.937C227.779 22.6499 228.186 22.5063 228.699 22.5063C229.205 22.5063 229.608 22.6499 229.909 22.937C230.209 23.2241 230.36 23.5898 230.36 24.0342C230.36 24.4854 230.206 24.8545 229.898 25.1416C229.598 25.4287 229.198 25.5723 228.699 25.5723C228.2 25.5723 227.796 25.4287 227.489 25.1416C227.188 24.8545 227.038 24.4854 227.038 24.0342ZM232.206 32.3706C232.206 30.6685 232.609 29.2979 233.416 28.2588C234.229 27.2197 235.323 26.7002 236.697 26.7002C237.914 26.7002 238.86 27.1172 239.537 27.9512L239.66 26.9053H242.347V37.6309C242.347 38.6016 242.125 39.4458 241.68 40.1636C241.243 40.8813 240.624 41.4282 239.824 41.8042C239.024 42.1802 238.088 42.3682 237.015 42.3682C236.201 42.3682 235.408 42.2041 234.636 41.876C233.863 41.5547 233.279 41.1377 232.882 40.625L234.195 38.8203C234.933 39.6475 235.829 40.061 236.881 40.061C237.667 40.061 238.279 39.8491 238.717 39.4253C239.154 39.0083 239.373 38.4136 239.373 37.6411V37.0464C238.689 37.8188 237.791 38.2051 236.676 38.2051C235.343 38.2051 234.263 37.6855 233.436 36.6465C232.616 35.6006 232.206 34.2163 232.206 32.4937V32.3706ZM235.169 32.5859C235.169 33.5908 235.371 34.3804 235.774 34.9546C236.177 35.522 236.731 35.8057 237.435 35.8057C238.337 35.8057 238.983 35.4673 239.373 34.7905V30.125C238.977 29.4482 238.337 29.1099 237.456 29.1099C236.745 29.1099 236.184 29.4004 235.774 29.9814C235.371 30.5625 235.169 31.4307 235.169 32.5859ZM247.361 26.9053L247.453 28.187C248.246 27.1958 249.309 26.7002 250.642 26.7002C251.818 26.7002 252.693 27.0454 253.267 27.7358C253.841 28.4263 254.135 29.4585 254.149 30.8325V38H251.186V30.9043C251.186 30.2754 251.049 29.8208 250.775 29.5405C250.502 29.2534 250.047 29.1099 249.412 29.1099C248.578 29.1099 247.952 29.4653 247.535 30.1763V38H244.572V26.9053H247.361ZM265.1 38H262.024V23.0703H265.1V38ZM270.494 26.9053L270.586 28.187C271.379 27.1958 272.442 26.7002 273.775 26.7002C274.951 26.7002 275.826 27.0454 276.4 27.7358C276.974 28.4263 277.268 29.4585 277.282 30.8325V38H274.318V30.9043C274.318 30.2754 274.182 29.8208 273.908 29.5405C273.635 29.2534 273.18 29.1099 272.544 29.1099C271.71 29.1099 271.085 29.4653 270.668 30.1763V38H267.705V26.9053H270.494Z" fill="white"/>
</svg>
