<svg width="36" height="37" viewBox="0 0 36 37" fill="none" xmlns="http://www.w3.org/2000/svg">
<path d="M16.5083 0.223511C14.8105 0.223511 13.1128 0.885254 11.8186 2.2135C9.23254 4.86761 9.23254 9.18561 11.8186 11.8421L20.7852 21.0422C21.0449 21.3088 21.3882 21.454 21.7523 21.454C22.1188 21.454 22.4644 21.3088 22.7241 21.0422L31.6814 11.8421C34.2675 9.18561 34.2675 4.86761 31.6814 2.2135C29.0953 -0.442993 24.8881 -0.442993 22.2997 2.2135L21.75 2.77765L21.2003 2.2135C19.9061 0.885254 18.2084 0.223511 16.5083 0.223511ZM26.9917 1.43988C28.3856 1.43988 29.7819 1.98499 30.8418 3.0752C32.9663 5.25323 32.9663 8.79999 30.8418 10.978L21.8822 20.1829C21.7964 20.271 21.7129 20.271 21.6248 20.1829L12.6582 10.978C10.5337 8.79999 10.5337 5.25323 12.6582 3.0752C13.7205 1.98499 15.1144 1.44226 16.5083 1.44226C17.9045 1.44226 19.2985 1.98499 20.3584 3.0752L20.9127 3.64172L20.7828 3.77264C20.5486 4.01068 20.5486 4.3963 20.7828 4.63434C20.8965 4.75336 21.0496 4.81287 21.2026 4.81287C21.3534 4.81287 21.5065 4.75336 21.6201 4.63434L21.75 4.50104L23.1416 3.0752C24.2015 1.98499 25.5978 1.43988 26.9917 1.43988ZM19.8087 5.02234C19.658 5.02234 19.5049 5.08185 19.3889 5.20087L18.4055 6.21014C18.1736 6.44818 18.1736 6.8338 18.4055 7.07184C18.5215 7.19086 18.6722 7.25037 18.8253 7.25037C18.9784 7.25037 19.1292 7.19086 19.2451 7.07184L20.2285 6.06256C20.4604 5.82452 20.4604 5.4389 20.2285 5.20087C20.1125 5.08185 19.9595 5.02234 19.8087 5.02234ZM10.0513 20.5257C9.69177 20.5162 9.33228 20.5328 8.97278 20.5757L1.94751 21.4231C1.05225 21.5326 0.375 22.3134 0.375 23.2417V30.9541C0.375 31.523 0.625488 32.0467 1.06152 32.3966C1.49524 32.7441 2.05188 32.8655 2.58765 32.7275L6.48413 31.7301C7.47681 31.4778 8.52283 31.6039 9.42969 32.0943L16.9026 36.1338C17.6819 36.5551 18.5354 36.7646 19.3912 36.7646C20.2355 36.7646 21.0797 36.5623 21.8521 36.1505L34.4994 29.4188C35.4248 28.926 36 27.9572 36 26.8813C36 25.9934 35.6057 25.1722 34.9215 24.6271C34.2373 24.082 33.3606 23.8987 32.5233 24.1224L24.561 26.241C24.4056 25.7649 24.1343 25.3293 23.7725 24.9841C23.1694 24.4081 22.3577 24.1129 21.5366 24.1748L20.2355 24.27C19.7252 24.3081 19.2173 24.2105 18.7557 23.9868L13.1685 21.2803C12.1874 20.8066 11.1251 20.5495 10.0513 20.5257ZM10.0234 21.7444C10.9326 21.7635 11.8325 21.9801 12.6605 22.3824L18.2501 25.0889C18.8949 25.4007 19.6093 25.5388 20.3213 25.4864L21.6224 25.3912C22.1211 25.3555 22.5989 25.5269 22.9653 25.8768C23.3295 26.2243 23.5312 26.7004 23.5312 27.2122V27.4597C23.5312 27.7001 23.3944 27.9191 23.181 28.0167L21.4276 28.8237C20.1125 29.4307 18.5911 29.464 17.2528 28.9141L14.2585 27.6835C13.9524 27.5573 13.6068 27.712 13.4862 28.0239C13.3633 28.3357 13.5117 28.6904 13.8179 28.8141L16.8121 30.0472C18.4496 30.7184 20.3097 30.678 21.917 29.9353L23.6681 29.1284C24.3059 28.8332 24.7188 28.1786 24.7188 27.4597L32.8202 25.3007C33.3026 25.1746 33.8013 25.2793 34.1932 25.5911C34.5875 25.903 34.8125 26.3743 34.8125 26.8884C34.8125 27.5002 34.4832 28.0548 33.9543 28.3357L21.3047 35.0674C20.0986 35.7101 18.6583 35.7053 17.4546 35.0555L9.98169 31.016C9.20703 30.597 8.35352 30.3828 7.49304 30.3828C7.05933 30.3828 6.62561 30.4376 6.19885 30.5471L2.30005 31.5468C2.12146 31.5944 1.93591 31.554 1.79211 31.4373C1.646 31.3207 1.5625 31.1445 1.5625 30.9541V23.2417C1.5625 22.9323 1.78748 22.6704 2.08667 22.6347L9.11194 21.7873C9.41577 21.7516 9.7196 21.7373 10.0234 21.7444ZM3.34375 23.375C3.01672 23.375 2.75 23.6487 2.75 23.9844C2.75 24.32 3.01672 24.5938 3.34375 24.5938H4.53125C4.85828 24.5938 5.125 24.32 5.125 23.9844C5.125 23.6487 4.85828 23.375 4.53125 23.375H3.34375ZM3.34375 26.4219C3.01672 26.4219 2.75 26.6956 2.75 27.0312C2.75 27.3669 3.01672 27.6406 3.34375 27.6406H4.53125C4.85828 27.6406 5.125 27.3669 5.125 27.0312C5.125 26.6956 4.85828 26.4219 4.53125 26.4219H3.34375ZM3.34375 29.4688C3.01672 29.4688 2.75 29.7425 2.75 30.0781C2.75 30.4138 3.01672 30.6875 3.34375 30.6875H4.53125C4.85828 30.6875 5.125 30.4138 5.125 30.0781C5.125 29.7425 4.85828 29.4688 4.53125 29.4688H3.34375Z" fill="#2196F3"/>
</svg>
