<svg width="50" height="50" viewBox="0 0 50 50" fill="none" xmlns="http://www.w3.org/2000/svg">
<path d="M20.8333 4.16666C11.6532 4.16666 4.16663 11.6533 4.16663 20.8333C4.16663 30.0134 11.6532 37.5 20.8333 37.5C25.0498 37.5 28.8993 35.9105 31.84 33.313L33.3333 34.8063V37.5L41.6666 45.8333L45.8333 41.6667L37.5 33.3333H34.8063L33.3129 31.84C35.9105 28.8994 37.5 25.0498 37.5 20.8333C37.5 11.6533 30.0134 4.16666 20.8333 4.16666ZM20.8333 8.33332C27.7615 8.33332 33.3333 13.9051 33.3333 20.8333C33.3333 27.7616 27.7615 33.3333 20.8333 33.3333C13.9051 33.3333 8.33329 27.7616 8.33329 20.8333C8.33329 13.9051 13.9051 8.33332 20.8333 8.33332ZM14.5833 18.75C14.0308 18.75 13.5009 18.9695 13.1102 19.3602C12.7195 19.7509 12.5 20.2808 12.5 20.8333C12.5 21.3859 12.7195 21.9158 13.1102 22.3065C13.5009 22.6972 14.0308 22.9167 14.5833 22.9167C15.1358 22.9167 15.6657 22.6972 16.0564 22.3065C16.4471 21.9158 16.6666 21.3859 16.6666 20.8333C16.6666 20.2808 16.4471 19.7509 16.0564 19.3602C15.6657 18.9695 15.1358 18.75 14.5833 18.75ZM20.8333 18.75C20.2808 18.75 19.7509 18.9695 19.3602 19.3602C18.9695 19.7509 18.75 20.2808 18.75 20.8333C18.75 21.3859 18.9695 21.9158 19.3602 22.3065C19.7509 22.6972 20.2808 22.9167 20.8333 22.9167C21.3858 22.9167 21.9157 22.6972 22.3064 22.3065C22.6971 21.9158 22.9166 21.3859 22.9166 20.8333C22.9166 20.2808 22.6971 19.7509 22.3064 19.3602C21.9157 18.9695 21.3858 18.75 20.8333 18.75ZM27.0833 18.75C26.5308 18.75 26.0009 18.9695 25.6102 19.3602C25.2195 19.7509 25 20.2808 25 20.8333C25 21.3859 25.2195 21.9158 25.6102 22.3065C26.0009 22.6972 26.5308 22.9167 27.0833 22.9167C27.6358 22.9167 28.1657 22.6972 28.5564 22.3065C28.9471 21.9158 29.1666 21.3859 29.1666 20.8333C29.1666 20.2808 28.9471 19.7509 28.5564 19.3602C28.1657 18.9695 27.6358 18.75 27.0833 18.75Z" fill="black"/>
</svg>
