<svg width="30" height="30" viewBox="0 0 30 30" fill="none" xmlns="http://www.w3.org/2000/svg">
<path d="M5.5 0.75C2.89539 0.75 0.75 2.89539 0.75 5.5V24.5C0.75 27.1046 2.89539 29.25 5.5 29.25H18.9583C21.156 29.25 23.1123 27.8096 23.6589 25.686C23.7106 25.4845 23.7222 25.2749 23.693 25.069C23.6637 24.863 23.5942 24.6649 23.4884 24.4859C23.3826 24.3068 23.2425 24.1504 23.0763 24.0255C22.91 23.9005 22.7207 23.8096 22.5193 23.7578C22.3179 23.706 22.1082 23.6944 21.9023 23.7237C21.6964 23.7529 21.4982 23.8224 21.3192 23.9283C21.1402 24.0341 20.9837 24.1741 20.8588 24.3404C20.7339 24.5067 20.6429 24.696 20.5911 24.8974C20.4347 25.505 19.712 26.0833 18.9583 26.0833H5.5C4.60702 26.0833 3.91667 25.393 3.91667 24.5V5.5C3.91667 4.60703 4.60702 3.91667 5.5 3.91667H18.9583C19.712 3.91667 20.4347 4.49498 20.5911 5.10262C20.6429 5.30405 20.7339 5.49331 20.8588 5.65959C20.9837 5.82587 21.1402 5.96592 21.3192 6.07174C21.4982 6.17755 21.6964 6.24707 21.9023 6.27632C22.1082 6.30556 22.3179 6.29397 22.5193 6.24219C22.7207 6.19041 22.91 6.09946 23.0763 5.97454C23.2425 5.84962 23.3826 5.69317 23.4884 5.51413C23.5942 5.33508 23.6637 5.13695 23.693 4.93104C23.7222 4.72513 23.7106 4.51548 23.6589 4.31405C23.1123 2.19043 21.156 0.75 18.9583 0.75H5.5ZM22.8997 8.6512C22.5848 8.65159 22.2772 8.74583 22.0162 8.92188C21.7552 9.09793 21.5526 9.34779 21.4342 9.63956C21.3159 9.93132 21.2872 10.2517 21.3519 10.5599C21.4165 10.868 21.5716 11.1499 21.7972 11.3695L23.8444 13.4167H9.45833C9.24852 13.4137 9.04021 13.4525 8.84551 13.5307C8.65081 13.6089 8.47361 13.7251 8.32419 13.8724C8.17477 14.0197 8.05612 14.1953 7.97514 14.3889C7.89415 14.5824 7.85245 14.7902 7.85245 15C7.85245 15.2098 7.89415 15.4176 7.97514 15.6111C8.05612 15.8047 8.17477 15.9803 8.32419 16.1276C8.47361 16.2749 8.65081 16.3911 8.84551 16.4693C9.04021 16.5475 9.24852 16.5863 9.45833 16.5833H23.8444L21.7972 18.6305C21.6452 18.7764 21.5239 18.9512 21.4403 19.1446C21.3568 19.3379 21.3126 19.546 21.3105 19.7567C21.3083 19.9673 21.3482 20.1763 21.4279 20.3713C21.5075 20.5663 21.6252 20.7435 21.7742 20.8925C21.9231 21.0414 22.1003 21.1592 22.2954 21.2388C22.4904 21.3184 22.6993 21.3583 22.91 21.3562C23.1206 21.3541 23.3287 21.3099 23.5221 21.2263C23.7155 21.1427 23.8902 21.0214 24.0361 20.8695L28.7861 16.1195C29.083 15.8225 29.2497 15.4199 29.2497 15C29.2497 14.5801 29.083 14.1775 28.7861 13.8805L24.0361 9.13053C23.8884 8.97867 23.7117 8.858 23.5165 8.77567C23.3213 8.69333 23.1115 8.65101 22.8997 8.6512Z" fill="#2196F3"/>
</svg>
